<svg width="32" height="32" viewBox="0 0 32 32" fill="none" xmlns="http://www.w3.org/2000/svg">
<path d="M25.7071 24.2924C25.8 24.3854 25.8737 24.4957 25.924 24.6171C25.9743 24.7384 26.0001 24.8686 26.0001 24.9999C26.0001 25.1313 25.9743 25.2614 25.924 25.3828C25.8737 25.5042 25.8 25.6145 25.7071 25.7074C25.6142 25.8004 25.5039 25.8741 25.3825 25.9243C25.2611 25.9746 25.131 26.0005 24.9996 26.0005C24.8682 26.0005 24.7381 25.9746 24.6167 25.9243C24.4953 25.8741 24.385 25.8004 24.2921 25.7074L15.9996 17.4137L7.70708 25.7074C7.51944 25.8951 7.26494 26.0005 6.99958 26.0005C6.73422 26.0005 6.47972 25.8951 6.29208 25.7074C6.10444 25.5198 5.99902 25.2653 5.99902 24.9999C5.99902 24.7346 6.10444 24.4801 6.29208 24.2924L14.5858 15.9999L6.29208 7.70745C6.10444 7.5198 5.99902 7.26531 5.99902 6.99995C5.99902 6.73458 6.10444 6.48009 6.29208 6.29245C6.47972 6.1048 6.73422 5.99939 6.99958 5.99939C7.26494 5.99939 7.51944 6.1048 7.70708 6.29245L15.9996 14.5862L24.2921 6.29245C24.4797 6.10481 24.7342 5.99939 24.9996 5.99939C25.2649 5.99939 25.5194 6.1048 25.7071 6.29245C25.8947 6.48009 26.0001 6.73458 26.0001 6.99995C26.0001 7.26531 25.8947 7.5198 25.7071 7.70745L17.4133 15.9999L25.7071 24.2924Z" fill="white"/>
</svg>
