<svg width="1904" height="484" viewBox="0 0 1904 484" fill="none" xmlns="http://www.w3.org/2000/svg">
<path d="M-204 39.1014C-55.0589 12.0227 26.561 -3.15667 75.8927 1.99788C126.005 8.10497 144.588 26.9064 185.086 57.0962C259.913 118.014 197.773 155.347 373.547 136.949C549.321 118.551 529.967 27.2137 602.929 56.0015C675.89 84.7894 788.255 182.637 920.596 126.617C1052.94 70.5971 1056.32 60.5722 1125.67 96.6771C1181.16 125.561 1265.89 99.609 1301.32 83.0226" stroke="url(#paint0_linear_318_107)"/>
<path d="M-171.064 52.1576C-25.983 24.6181 59.5503 7.56814 109.696 16.4657C161.404 27.2683 179.24 48.7392 224.191 76.8549C301.755 134.162 237.549 162.854 413.572 149.045C589.595 135.237 568.65 34.835 645.616 67.0029C722.582 99.1708 830.818 193.639 960.721 137.254C1090.62 80.8687 1092.69 72.1113 1160.87 106.411C1215.42 133.851 1298.35 106.36 1332.99 89.1843" stroke="url(#paint1_linear_318_107)"/>
<path d="M-138.128 65.4663C3.09301 37.4658 92.5397 18.5453 143.5 31.1859C196.803 46.6841 213.893 70.8244 263.296 96.866C343.596 150.562 277.326 170.612 453.598 161.394C629.869 152.176 607.332 42.7087 688.303 78.2566C769.275 113.805 873.381 204.892 1000.85 148.143C1128.31 91.3927 1129.06 83.9028 1196.07 116.397C1249.69 142.393 1330.8 113.363 1364.66 95.5985" stroke="url(#paint2_linear_318_107)"/>
<path d="M-105.192 78.9291C32.1689 50.4677 125.529 29.6767 177.303 46.0602C232.201 66.254 248.545 93.0638 302.401 117.031C385.438 167.117 317.103 178.525 493.624 173.896C670.144 169.268 646.014 50.7366 730.991 89.6645C815.967 128.592 915.944 216.3 1040.97 159.186C1166 102.071 1165.43 95.8485 1231.27 126.538C1283.95 151.089 1363.26 120.52 1396.32 102.167" stroke="url(#paint3_linear_318_107)"/>
<path d="M-72.2565 92.4947C61.2449 63.5724 158.519 40.9109 211.106 61.0374C267.6 85.9267 283.197 115.406 341.507 137.299C427.279 183.775 356.88 186.54 533.649 186.502C710.418 186.463 684.696 58.8673 773.678 101.175C862.66 143.483 958.507 227.811 1081.1 170.331C1203.69 112.852 1201.79 107.897 1266.47 136.781C1318.21 159.888 1395.71 127.78 1427.99 108.838" stroke="url(#paint4_linear_318_107)"/>
<path d="M-39.3207 106.133C90.3207 76.7499 191.508 52.2178 244.91 76.0873C302.998 105.672 317.849 137.821 380.612 157.64C469.12 200.505 396.657 194.628 573.674 199.18C750.692 203.731 723.378 67.0707 816.365 112.759C909.352 158.447 1001.07 239.395 1121.22 181.55C1241.37 123.705 1238.16 120.018 1301.67 147.097C1352.48 168.76 1428.17 135.113 1459.66 115.582" stroke="url(#paint5_linear_318_107)"/>
<path d="M-6.38495 119.825C119.397 89.9811 224.497 63.5784 278.713 91.191C338.397 125.471 352.502 160.29 419.717 178.035C510.962 217.289 436.433 202.77 613.7 211.912C790.967 221.053 762.061 75.3279 859.052 124.396C956.044 173.464 1043.63 251.032 1161.35 192.822C1279.06 134.613 1274.53 132.193 1336.87 157.466C1386.74 177.685 1460.62 142.5 1491.33 122.379" stroke="url(#paint6_linear_318_107)"/>
<path d="M26.5511 133.558C148.473 103.253 257.487 74.9801 312.517 106.336C373.796 145.312 387.154 182.799 458.822 198.47C552.804 234.114 476.21 210.953 653.726 224.685C831.241 238.416 800.743 83.6261 901.74 136.074C1002.74 188.522 1086.2 262.71 1201.47 204.136C1316.75 145.561 1310.9 144.409 1372.07 167.877C1421.01 186.652 1493.08 149.927 1522.99 129.218" stroke="url(#paint7_linear_318_107)"/>
<path d="M59.4871 147.324C177.549 116.558 290.476 86.414 346.32 121.512C409.194 165.184 421.806 205.341 497.927 218.938C594.645 250.971 515.987 219.168 693.751 237.49C871.515 255.811 839.425 91.9564 944.427 147.785C1049.43 203.613 1128.76 274.42 1241.6 215.481C1354.43 156.542 1347.27 156.657 1407.27 178.32C1455.27 195.65 1525.53 157.387 1554.66 136.089" stroke="url(#paint8_linear_318_107)"/>
<path d="M92.4228 161.115C206.625 129.888 323.465 97.8736 380.123 136.715C444.593 185.082 456.459 227.909 537.032 239.431C636.486 267.854 555.764 227.409 733.777 250.321C911.79 273.232 878.107 100.313 987.114 159.521C1096.12 218.729 1171.32 286.157 1281.72 226.852C1392.12 167.548 1383.64 168.931 1442.47 188.789C1489.54 204.675 1557.99 164.872 1586.33 142.985" stroke="url(#paint9_linear_318_107)"/>
<path d="M125.359 174.927C235.7 143.239 356.454 109.354 413.927 151.939C479.991 205.001 491.111 250.497 576.137 259.946C678.328 284.758 595.54 235.671 773.802 263.172C952.064 290.673 916.79 108.69 1029.8 171.278C1142.81 233.866 1213.88 297.914 1321.85 238.245C1429.81 178.576 1420.01 181.226 1477.67 199.278C1523.8 213.72 1590.44 172.379 1618 149.903" stroke="url(#paint10_linear_318_107)"/>
<path d="M158.295 188.756C264.776 156.607 389.444 120.852 447.73 167.18C515.39 224.938 525.763 273.103 615.242 280.478C720.17 301.68 635.317 243.95 813.828 276.041C992.338 308.133 955.472 117.084 1072.49 183.052C1189.51 249.02 1256.45 309.688 1361.97 249.654C1467.5 189.62 1456.38 193.538 1512.87 209.785C1558.06 222.783 1622.9 179.903 1649.66 156.838" stroke="url(#paint11_linear_318_107)"/>
<path d="M191.23 202.6C293.852 169.99 422.433 132.364 481.534 182.435C550.788 244.889 560.416 295.724 654.347 301.024C762.011 318.616 675.094 252.244 853.853 288.925C1032.61 325.606 994.154 125.493 1115.18 194.841C1236.2 264.189 1299.01 321.477 1402.1 261.078C1505.18 200.679 1492.74 205.865 1548.07 220.307C1592.33 231.86 1655.35 187.441 1681.33 163.787" stroke="url(#paint12_linear_318_107)"/>
<path d="M224.166 216.914C322.928 183.844 455.423 144.347 515.337 198.161C586.187 265.31 595.068 318.815 693.453 322.041C803.852 336.022 714.871 261.008 893.879 302.279C1072.89 343.55 1032.84 134.372 1157.86 207.101C1282.89 279.829 1341.57 333.737 1442.22 272.973C1542.87 212.209 1529.11 218.662 1583.27 231.299C1626.59 241.408 1687.81 195.45 1713 171.207" stroke="url(#paint13_linear_318_107)"/>
<path d="M257.102 236.902C352.004 203.37 488.412 162.003 549.141 219.56C621.586 291.405 629.72 347.578 732.558 348.731C845.694 359.101 754.648 275.446 933.904 321.306C1113.16 367.167 1071.52 148.925 1200.55 225.033C1329.58 301.141 1384.14 351.669 1482.35 290.54C1580.56 229.412 1565.48 237.132 1618.47 247.964C1660.86 256.629 1720.26 209.132 1744.66 184.3" stroke="url(#paint14_linear_318_107)"/>
<path d="M290.038 256.889C381.08 222.897 521.401 179.659 582.944 240.959C656.984 317.499 664.373 376.342 771.663 375.42C887.535 382.181 794.424 289.883 973.93 340.333C1153.44 390.784 1110.2 163.477 1243.24 242.966C1376.27 322.454 1426.7 369.601 1522.47 308.108C1618.24 246.614 1601.85 255.602 1653.67 264.629C1695.12 271.849 1752.72 222.813 1776.33 197.393" stroke="url(#paint15_linear_318_107)"/>
<path d="M322.974 276.876C410.156 242.423 554.391 197.315 616.747 262.358C692.383 343.594 699.025 405.106 810.768 402.11C929.377 405.26 834.201 304.32 1013.96 359.361C1193.71 414.401 1148.88 178.03 1285.93 260.898C1422.97 343.766 1469.26 387.534 1562.6 325.676C1655.93 263.817 1638.22 274.072 1688.87 281.293C1729.39 287.07 1785.17 236.495 1808 210.486" stroke="url(#paint16_linear_318_107)"/>
<path d="M355.91 296.864C439.232 261.95 587.38 214.971 650.551 283.756C727.782 369.688 733.677 433.87 849.873 428.8C971.219 428.339 873.978 318.757 1053.98 378.388C1233.98 438.018 1187.57 192.582 1328.61 278.83C1469.66 365.079 1511.82 405.466 1602.72 343.243C1693.62 281.02 1674.59 292.543 1724.07 297.958C1763.65 302.291 1817.63 250.177 1839.67 223.579" stroke="url(#paint17_linear_318_107)"/>
<path d="M388.846 316.851C468.308 281.476 620.369 232.627 684.354 305.155C763.18 395.782 768.33 462.634 888.978 455.49C1013.06 451.418 913.755 333.194 1094.01 397.415C1274.26 461.635 1226.25 207.135 1371.3 296.763C1516.35 386.391 1554.39 423.399 1642.85 360.811C1731.31 298.222 1710.96 311.013 1759.27 314.623C1797.91 317.512 1850.08 263.859 1871.33 236.671" stroke="url(#paint18_linear_318_107)"/>
<path d="M421.781 336.838C497.384 301.002 653.359 250.283 718.158 326.554C798.579 421.877 802.982 491.398 928.083 482.18C1054.9 474.498 953.532 347.631 1134.03 416.442C1314.53 485.252 1264.93 221.687 1413.99 314.695C1563.04 407.704 1596.95 441.331 1682.97 378.378C1768.99 315.425 1747.33 329.483 1794.47 331.288C1832.18 332.732 1882.54 277.541 1903 249.764" stroke="url(#paint19_linear_318_107)"/>
<defs>
<linearGradient id="paint0_linear_318_107" x1="548.662" y1="1" x2="548.662" y2="143.628" gradientUnits="userSpaceOnUse">
<stop stop-color="#C88AF9" stop-opacity="0.99932"/>
<stop offset="0.588542" stop-color="#79FFF7"/>
<stop offset="1" stop-color="#6A13F9" stop-opacity="0.9"/>
</linearGradient>
<linearGradient id="paint1_linear_318_107" x1="580.963" y1="14.0928" x2="580.963" y2="154.834" gradientUnits="userSpaceOnUse">
<stop stop-color="#C88AF9" stop-opacity="0.99932"/>
<stop offset="0.588542" stop-color="#79FFF7"/>
<stop offset="1" stop-color="#6A13F9" stop-opacity="0.9"/>
</linearGradient>
<linearGradient id="paint2_linear_318_107" x1="613.265" y1="27.1857" x2="613.265" y2="166.314" gradientUnits="userSpaceOnUse">
<stop stop-color="#C88AF9" stop-opacity="0.99932"/>
<stop offset="0.588542" stop-color="#79FFF7"/>
<stop offset="1" stop-color="#6A13F9" stop-opacity="0.9"/>
</linearGradient>
<linearGradient id="paint3_linear_318_107" x1="645.566" y1="40.2786" x2="645.566" y2="177.971" gradientUnits="userSpaceOnUse">
<stop stop-color="#C88AF9" stop-opacity="0.99932"/>
<stop offset="0.588542" stop-color="#79FFF7"/>
<stop offset="1" stop-color="#6A13F9" stop-opacity="0.9"/>
</linearGradient>
<linearGradient id="paint4_linear_318_107" x1="677.868" y1="53.3714" x2="677.868" y2="189.754" gradientUnits="userSpaceOnUse">
<stop stop-color="#C88AF9" stop-opacity="0.99932"/>
<stop offset="0.588542" stop-color="#79FFF7"/>
<stop offset="1" stop-color="#6A13F9" stop-opacity="0.9"/>
</linearGradient>
<linearGradient id="paint5_linear_318_107" x1="710.169" y1="66.4643" x2="710.169" y2="201.633" gradientUnits="userSpaceOnUse">
<stop stop-color="#C88AF9" stop-opacity="0.99932"/>
<stop offset="0.588542" stop-color="#79FFF7"/>
<stop offset="1" stop-color="#6A13F9" stop-opacity="0.9"/>
</linearGradient>
<linearGradient id="paint6_linear_318_107" x1="742.471" y1="79.5571" x2="742.471" y2="213.591" gradientUnits="userSpaceOnUse">
<stop stop-color="#C88AF9" stop-opacity="0.99932"/>
<stop offset="0.588542" stop-color="#79FFF7"/>
<stop offset="1" stop-color="#6A13F9" stop-opacity="0.9"/>
</linearGradient>
<linearGradient id="paint7_linear_318_107" x1="774.772" y1="92.65" x2="774.772" y2="225.615" gradientUnits="userSpaceOnUse">
<stop stop-color="#C88AF9" stop-opacity="0.99932"/>
<stop offset="0.588542" stop-color="#79FFF7"/>
<stop offset="1" stop-color="#6A13F9" stop-opacity="0.9"/>
</linearGradient>
<linearGradient id="paint8_linear_318_107" x1="807.074" y1="105.743" x2="807.074" y2="238.928" gradientUnits="userSpaceOnUse">
<stop stop-color="#C88AF9" stop-opacity="0.99932"/>
<stop offset="0.588542" stop-color="#79FFF7"/>
<stop offset="1" stop-color="#6A13F9" stop-opacity="0.9"/>
</linearGradient>
<linearGradient id="paint9_linear_318_107" x1="839.375" y1="118.836" x2="839.375" y2="252.426" gradientUnits="userSpaceOnUse">
<stop stop-color="#C88AF9" stop-opacity="0.99932"/>
<stop offset="0.588542" stop-color="#79FFF7"/>
<stop offset="1" stop-color="#6A13F9" stop-opacity="0.9"/>
</linearGradient>
<linearGradient id="paint10_linear_318_107" x1="871.677" y1="131.929" x2="871.677" y2="267.198" gradientUnits="userSpaceOnUse">
<stop stop-color="#C88AF9" stop-opacity="0.99932"/>
<stop offset="0.588542" stop-color="#79FFF7"/>
<stop offset="1" stop-color="#6A13F9" stop-opacity="0.9"/>
</linearGradient>
<linearGradient id="paint11_linear_318_107" x1="903.979" y1="145.021" x2="903.979" y2="285.285" gradientUnits="userSpaceOnUse">
<stop stop-color="#C88AF9" stop-opacity="0.99932"/>
<stop offset="0.588542" stop-color="#79FFF7"/>
<stop offset="1" stop-color="#6A13F9" stop-opacity="0.9"/>
</linearGradient>
<linearGradient id="paint12_linear_318_107" x1="936.28" y1="158.114" x2="936.28" y2="304.053" gradientUnits="userSpaceOnUse">
<stop stop-color="#C88AF9" stop-opacity="0.99932"/>
<stop offset="0.588542" stop-color="#79FFF7"/>
<stop offset="1" stop-color="#6A13F9" stop-opacity="0.9"/>
</linearGradient>
<linearGradient id="paint13_linear_318_107" x1="968.581" y1="171.207" x2="968.581" y2="323.804" gradientUnits="userSpaceOnUse">
<stop stop-color="#C88AF9" stop-opacity="0.99932"/>
<stop offset="0.588542" stop-color="#79FFF7"/>
<stop offset="1" stop-color="#6A13F9" stop-opacity="0.9"/>
</linearGradient>
<linearGradient id="paint14_linear_318_107" x1="1000.88" y1="184.3" x2="1000.88" y2="349.63" gradientUnits="userSpaceOnUse">
<stop stop-color="#C88AF9" stop-opacity="0.99932"/>
<stop offset="0.588542" stop-color="#79FFF7"/>
<stop offset="1" stop-color="#6A13F9" stop-opacity="0.9"/>
</linearGradient>
<linearGradient id="paint15_linear_318_107" x1="1033.18" y1="197.393" x2="1033.18" y2="375.777" gradientUnits="userSpaceOnUse">
<stop stop-color="#C88AF9" stop-opacity="0.99932"/>
<stop offset="0.588542" stop-color="#79FFF7"/>
<stop offset="1" stop-color="#6A13F9" stop-opacity="0.9"/>
</linearGradient>
<linearGradient id="paint16_linear_318_107" x1="1065.49" y1="210.486" x2="1065.49" y2="402.215" gradientUnits="userSpaceOnUse">
<stop stop-color="#C88AF9" stop-opacity="0.99932"/>
<stop offset="0.588542" stop-color="#79FFF7"/>
<stop offset="1" stop-color="#6A13F9" stop-opacity="0.9"/>
</linearGradient>
<linearGradient id="paint17_linear_318_107" x1="1097.79" y1="223.579" x2="1097.79" y2="429.081" gradientUnits="userSpaceOnUse">
<stop stop-color="#C88AF9" stop-opacity="0.99932"/>
<stop offset="0.588542" stop-color="#79FFF7"/>
<stop offset="1" stop-color="#6A13F9" stop-opacity="0.9"/>
</linearGradient>
<linearGradient id="paint18_linear_318_107" x1="1130.09" y1="236.671" x2="1130.09" y2="456.013" gradientUnits="userSpaceOnUse">
<stop stop-color="#C88AF9" stop-opacity="0.99932"/>
<stop offset="0.588542" stop-color="#79FFF7"/>
<stop offset="1" stop-color="#6A13F9" stop-opacity="0.9"/>
</linearGradient>
<linearGradient id="paint19_linear_318_107" x1="1162.39" y1="249.764" x2="1162.39" y2="483" gradientUnits="userSpaceOnUse">
<stop stop-color="#C88AF9" stop-opacity="0.99932"/>
<stop offset="0.588542" stop-color="#79FFF7"/>
<stop offset="1" stop-color="#6A13F9" stop-opacity="0.9"/>
</linearGradient>
</defs>
</svg>
