<svg width="73" height="72" viewBox="0 0 73 72" fill="none" xmlns="http://www.w3.org/2000/svg">
<path d="M9.52527 9.5H62.6769V62.5H9.52527V9.5Z" fill="url(#paint0_linear_371_7)" stroke="#00F0FF"/>
<path d="M41.3508 33H21.4004V37.896H28.556V60H34.2253V37.896H41.3508V33Z" fill="white"/>
<path d="M58.9561 39.1261C58.9561 39.1261 56.2681 37.3381 53.2295 37.3381C50.191 37.3381 49.0975 38.7781 49.0975 40.3171C49.0975 44.2891 60.2001 43.8916 60.2001 51.8851C60.2001 64.1986 43.2717 58.7371 43.2717 58.7371V52.8301C43.2717 52.8301 46.5087 55.2631 50.3911 55.2631C54.2735 55.2631 54.1261 52.7311 54.1261 52.3831C54.1261 48.7096 43.1227 48.7096 43.1227 40.5661C43.1227 29.4946 59.1546 33.8626 59.1546 33.8626L58.9561 39.1261Z" fill="white"/>
<defs>
<linearGradient id="paint0_linear_371_7" x1="22.8475" y1="-0.312" x2="48.4229" y2="70.1516" gradientUnits="userSpaceOnUse">
<stop stop-color="#2AA4F4"/>
<stop offset="1" stop-color="#007AD9"/>
</linearGradient>
</defs>
</svg>
