<svg width="647" height="637" viewBox="0 0 647 637" fill="none" xmlns="http://www.w3.org/2000/svg">
<g filter="url(#filter0_d_371_4)">
<g clip-path="url(#clip0_371_4)">
<path d="M354.987 0.792977L354.987 0.792977C357.246 0.790793 359.483 1.24543 361.571 2.13121C363.659 3.01701 365.556 4.31674 367.155 5.95665C368.754 7.5966 370.023 9.54453 370.888 11.6893C371.753 13.8341 372.197 16.1332 372.195 18.4549V18.4554V82.1306V82.131C372.197 84.4528 371.753 86.7519 370.888 88.8967C370.023 91.0414 368.754 92.9893 367.155 94.6293C365.556 96.2692 363.659 97.5689 361.571 98.4547C359.483 99.3405 357.246 99.7951 354.987 99.793H354.987H290.403H290.403C288.144 99.7951 285.907 99.3405 283.819 98.4547C281.732 97.5689 279.834 96.2692 278.235 94.6293C276.636 92.9893 275.367 91.0414 274.502 88.8967C273.637 86.7519 273.193 84.4528 273.195 82.131V82.1306L273.195 18.4554L273.195 18.4549C273.193 16.1332 273.637 13.8341 274.502 11.6893C275.367 9.54453 276.636 7.5966 278.235 5.95665C279.834 4.31674 281.732 3.01701 283.819 2.13121C285.907 1.24543 288.144 0.790793 290.403 0.792977H290.403L354.987 0.792977Z" fill="url(#paint0_linear_371_4)" stroke="#F1C143"/>
<path d="M340.04 78.539C342.054 81.8279 344.674 84.2454 349.309 84.2454C353.203 84.2454 355.69 82.2993 355.69 79.6104C355.69 76.3882 353.135 75.2469 348.849 73.3723L346.5 72.3644C339.719 69.4755 335.214 65.8565 335.214 58.2057C335.214 51.158 340.584 45.793 348.976 45.793C354.951 45.793 359.246 47.8723 362.341 53.3168L355.024 58.0152C353.413 55.1263 351.674 53.9882 348.976 53.9882C346.224 53.9882 344.479 55.7342 344.479 58.0152C344.479 60.8342 346.225 61.9755 350.257 63.7215L352.606 64.7279C360.59 68.1517 365.098 71.6422 365.098 79.4898C365.098 87.9501 358.452 92.585 349.527 92.585C340.8 92.585 335.162 88.4263 332.403 82.9755L340.04 78.539ZM306.844 79.3533C308.32 81.9723 309.663 84.1866 312.892 84.1866C315.979 84.1866 317.927 82.9787 317.927 78.2819V46.3295H327.324V78.4088C327.324 88.139 321.619 92.5676 313.292 92.5676C305.768 92.5676 301.411 88.6739 299.195 83.9842L306.844 79.3533Z" fill="black"/>
</g>
<g clip-path="url(#clip1_371_4)">
<path d="M620.508 130.058L620.508 130.058C622.767 130.056 625.004 130.51 627.092 131.396C629.18 132.282 631.077 133.582 632.676 135.222C634.275 136.862 635.544 138.81 636.409 140.954C637.274 143.099 637.718 145.398 637.716 147.72V147.72V211.396V211.396C637.718 213.718 637.274 216.017 636.409 218.162C635.544 220.306 634.275 222.254 632.676 223.894C631.077 225.534 629.18 226.834 627.092 227.72C625.004 228.606 622.767 229.06 620.508 229.058H620.508H555.924H555.924C553.665 229.06 551.428 228.606 549.34 227.72C547.253 226.834 545.355 225.534 543.756 223.894C542.157 222.254 540.888 220.306 540.023 218.162C539.158 216.017 538.714 213.718 538.716 211.396V211.396L538.716 147.72L538.716 147.72C538.714 145.398 539.158 143.099 540.023 140.954C540.888 138.81 542.157 136.862 543.756 135.222C545.355 133.582 547.253 132.282 549.34 131.396C551.428 130.51 553.665 130.056 555.924 130.058H555.924L620.508 130.058Z" fill="url(#paint1_linear_371_4)" stroke="#70BAFF"/>
<path d="M562.694 170.782L563.678 181.762H588.249V170.782H562.694ZM560.716 148.558L561.714 159.538H588.249V148.558H560.716V148.558ZM588.249 199.298L588.201 199.311L575.972 196.009L575.191 187.252H564.168L565.706 204.492L588.198 210.736L588.249 210.722V199.298Z" fill="#EBEBEB"/>
<path d="M613.734 170.782L615.716 148.558H588.211V159.538H603.683L602.684 170.782H588.211V181.762H601.732L600.457 196.002L588.211 199.308V210.731L610.721 204.492L610.886 202.637L613.466 173.73L613.734 170.782V170.782Z" fill="white"/>
</g>
<g clip-path="url(#clip2_371_4)">
<path d="M91.0955 130.058L91.096 130.058C93.3546 130.056 95.5917 130.511 97.6795 131.396C99.7673 132.282 101.665 133.582 103.264 135.222C104.863 136.862 106.132 138.81 106.997 140.955C107.862 143.099 108.306 145.398 108.304 147.72V147.721V211.396V211.396C108.306 213.718 107.862 216.017 106.997 218.162C106.132 220.307 104.863 222.255 103.264 223.895C101.665 225.534 99.7673 226.834 97.6795 227.72C95.5917 228.606 93.3546 229.06 91.096 229.058H91.0955H26.5122H26.5117C24.2531 229.06 22.016 228.606 19.9282 227.72C17.8404 226.834 15.9425 225.534 14.3436 223.895C12.7447 222.255 11.4761 220.307 10.611 218.162C9.74602 216.017 9.30171 213.718 9.30384 211.396V211.396L9.30384 147.721L9.30384 147.72C9.30171 145.398 9.74602 143.099 10.611 140.955C11.4761 138.81 12.7447 136.862 14.3436 135.222C15.9425 133.582 17.8404 132.282 19.9282 131.396C22.016 130.511 24.2531 130.056 26.5117 130.058H26.5122L91.0955 130.058Z" fill="url(#paint2_linear_371_4)" stroke="#CE7E45"/>
<path d="M43.3036 159.538H58.8367V148.558H31.3038L31.5665 151.504L34.2654 181.762H58.8367V170.782H44.3072L43.3036 159.538V159.538ZM45.7783 187.252H34.756L36.2941 204.493L58.7861 210.736L58.8367 210.722V199.299L58.7885 199.311L46.5601 196.009L45.7783 187.252V187.252Z" fill="#EBEBEB"/>
<path d="M58.7988 181.762H72.3196L71.0448 196.002L58.7985 199.308V210.731L81.3083 204.493L81.4734 202.638L84.0539 173.731L84.3218 170.782H58.7988V181.762ZM58.7988 159.511V159.538H85.3209L85.5409 157.07L86.0415 151.504L86.3038 148.558H58.7988V159.512V159.511Z" fill="white"/>
</g>
<path d="M91.0956 384.284L91.0961 384.284C93.3547 384.282 95.5918 384.736 97.6796 385.622C99.7674 386.508 101.665 387.807 103.264 389.447C104.863 391.087 106.132 393.035 106.997 395.18C107.862 397.325 108.306 399.624 108.304 401.946V401.946V465.621V465.622C108.306 467.943 107.862 470.243 106.997 472.387C106.132 474.532 104.863 476.48 103.264 478.12C101.665 479.76 99.7674 481.06 97.6796 481.945C95.5918 482.831 93.3547 483.286 91.0961 483.284H91.0956H26.5123H26.5118C24.2532 483.286 22.0161 482.831 19.9283 481.945C17.8405 481.06 15.9426 479.76 14.3437 478.12C12.7448 476.48 11.4762 474.532 10.6112 472.387C9.74614 470.243 9.30183 467.943 9.30396 465.622V465.621L9.30396 401.946L9.30396 401.946C9.30183 399.624 9.74614 397.325 10.6112 395.18C11.4762 393.035 12.7448 391.087 14.3437 389.447C15.9426 387.807 17.8405 386.508 19.9283 385.622C22.0161 384.736 24.2532 384.282 26.5118 384.284H26.5123L91.0956 384.284Z" fill="url(#paint3_linear_371_4)" stroke="white"/>
<path d="M58.5817 471.284C57.5773 471.284 56.5798 471.02 55.6992 470.513L46.5244 465.081C45.154 464.315 45.8227 464.044 46.2747 463.888C48.1018 463.248 48.4726 463.104 50.4229 461.996C50.6279 461.879 50.8962 461.92 51.106 462.044L58.1545 466.227C58.409 466.364 58.7701 466.364 59.0061 466.227L86.4887 450.363C86.7432 450.219 86.9084 449.923 86.9084 449.62V417.907C86.9084 417.59 86.7432 417.308 86.4832 417.15L59.0116 401.3C58.7571 401.149 58.42 401.149 58.1655 401.3L30.6994 417.15C30.4331 417.302 30.2639 417.597 30.2639 417.9V449.613C30.2639 449.916 30.429 450.205 30.6904 450.349L38.2163 454.697C42.3026 456.74 44.7998 454.333 44.7998 451.911V420.61C44.7998 420.163 45.1506 419.819 45.5977 419.819H49.0786C49.512 419.819 49.8698 420.163 49.8698 420.61V451.925C49.8698 457.373 46.8979 460.503 41.7316 460.503C40.1425 460.503 38.8905 460.503 35.3958 458.783L28.1864 454.628C26.4046 453.596 25.304 451.67 25.304 449.613V417.9C25.304 415.836 26.4046 413.91 28.1864 412.892L55.6965 397.021C57.4369 396.038 59.7484 396.038 61.4751 397.021L88.9508 412.899C90.7256 413.924 91.8332 415.843 91.8332 417.907V449.62C91.8332 451.677 90.7256 453.596 88.9508 454.628L61.4751 470.499C60.5945 471.008 59.597 471.269 58.5789 471.269" fill="#689F63"/>
<path d="M67.0706 449.431C55.0457 449.431 52.5244 443.911 52.5244 439.281C52.5244 438.841 52.8794 438.49 53.3203 438.49H56.87C57.2622 438.49 57.5924 438.776 57.6543 439.163C58.1909 442.78 59.7868 444.605 67.0582 444.605C72.8505 444.605 75.3133 443.296 75.3133 440.224C75.3133 438.457 74.6116 437.143 65.6136 436.262C58.0877 435.519 53.4373 433.861 53.4373 427.842C53.4373 422.297 58.1152 418.995 65.9506 418.995C74.7492 418.995 79.1107 422.05 79.661 428.612C79.6816 428.839 79.5991 429.059 79.4477 429.225C79.2964 429.383 79.0831 429.479 78.863 429.479H75.2927C74.9212 429.479 74.5979 429.218 74.5222 428.86C73.6623 425.056 71.5848 423.838 65.9369 423.838C59.6149 423.838 58.8788 426.039 58.8788 427.69C58.8788 429.692 59.7456 430.277 68.2758 431.405C76.7236 432.527 80.7342 434.109 80.7342 440.046C80.7342 446.031 75.7398 449.463 67.0307 449.463L67.0706 449.431Z" fill="#689F63"/>
<g clip-path="url(#clip3_371_4)">
<path d="M354.987 513.549L354.988 513.549C357.246 513.546 359.483 514.001 361.571 514.887C363.659 515.773 365.557 517.072 367.156 518.712C368.755 520.352 370.023 522.3 370.888 524.445C371.753 526.59 372.198 528.889 372.195 531.211V531.211V594.886V594.887C372.198 597.208 371.753 599.507 370.888 601.652C370.023 603.797 368.755 605.745 367.156 607.385C365.557 609.025 363.659 610.325 361.571 611.21C359.483 612.096 357.246 612.551 354.988 612.549H354.987H290.404H290.403C288.145 612.551 285.908 612.096 283.82 611.21C281.732 610.325 279.834 609.025 278.235 607.385C276.636 605.745 275.368 603.797 274.503 601.652C273.638 599.507 273.193 597.208 273.195 594.887V594.886L273.195 531.211L273.195 531.211C273.193 528.889 273.638 526.59 274.503 524.445C275.368 522.3 276.636 520.352 278.235 518.712C279.834 517.072 281.732 515.773 283.82 514.887C285.908 514.001 288.145 513.546 290.403 513.549H290.404L354.987 513.549Z" fill="url(#paint4_linear_371_4)" stroke="#59ADD1"/>
<g clip-path="url(#clip4_371_4)">
<path d="M322.695 569.661C326.535 569.661 329.648 566.589 329.648 562.799C329.648 559.009 326.535 555.936 322.695 555.936C318.856 555.936 315.743 559.009 315.743 562.799C315.743 566.589 318.856 569.661 322.695 569.661Z" fill="#61DAFB"/>
<path fill-rule="evenodd" clip-rule="evenodd" d="M289.412 558.517C287.725 560.02 287.016 561.469 287.016 562.799C287.016 564.128 287.725 565.578 289.412 567.081C291.098 568.583 293.63 570.01 296.897 571.242C303.42 573.7 312.54 575.254 322.695 575.254C332.851 575.254 341.971 573.7 348.494 571.242C351.761 570.01 354.293 568.583 355.979 567.081C357.666 565.578 358.375 564.128 358.375 562.799C358.375 561.469 357.666 560.02 355.979 558.517C354.293 557.014 351.761 555.587 348.494 554.356C341.971 551.898 332.851 550.343 322.695 550.343C312.54 550.343 303.42 551.898 296.897 554.356C293.63 555.587 291.098 557.014 289.412 558.517ZM295.738 551.359C302.717 548.729 312.248 547.135 322.695 547.135C333.143 547.135 342.674 548.729 349.653 551.359C353.137 552.672 356.068 554.274 358.157 556.136C360.246 557.997 361.625 560.246 361.625 562.799C361.625 565.352 360.246 567.601 358.157 569.462C356.068 571.323 353.137 572.925 349.653 574.238C342.674 576.869 333.143 578.462 322.695 578.462C312.248 578.462 302.717 576.869 295.738 574.238C292.254 572.925 289.323 571.323 287.234 569.462C285.145 567.601 283.766 565.352 283.766 562.799C283.766 560.246 285.145 557.997 287.234 556.136C289.323 554.274 292.254 552.672 295.738 551.359Z" fill="#61DAFB"/>
<path fill-rule="evenodd" clip-rule="evenodd" d="M309.81 532.206C307.648 531.516 306.022 531.635 304.856 532.299C303.69 532.964 302.772 534.294 302.297 536.488C301.821 538.681 301.835 541.559 302.389 544.967C303.493 551.772 306.69 560.345 311.768 569.026C316.845 577.707 322.769 584.727 328.187 589.073C330.901 591.25 333.419 592.701 335.581 593.391C337.743 594.082 339.369 593.963 340.535 593.298C341.701 592.633 342.619 591.303 343.094 589.109C343.569 586.916 343.555 584.039 343.002 580.63C341.898 573.825 338.701 565.252 333.623 556.571C328.546 547.89 322.622 540.871 317.204 536.524C314.49 534.347 311.972 532.896 309.81 532.206ZM319.254 534.035C325.051 538.685 331.214 546.036 336.438 554.967C341.662 563.898 345.03 572.842 346.211 580.123C346.801 583.757 346.861 587.064 346.272 589.78C345.684 592.496 344.4 594.8 342.16 596.076C339.92 597.353 337.257 597.298 334.58 596.444C331.903 595.589 329.031 593.884 326.137 591.563C320.34 586.912 314.177 579.561 308.953 570.63C303.729 561.7 300.361 552.755 299.18 545.474C298.59 541.84 298.53 538.533 299.119 535.817C299.707 533.101 300.991 530.798 303.231 529.521C305.471 528.244 308.134 528.299 310.811 529.154C313.488 530.009 316.36 531.713 319.254 534.035Z" fill="#61DAFB"/>
<path fill-rule="evenodd" clip-rule="evenodd" d="M343.094 536.488C342.619 534.294 341.701 532.964 340.535 532.299C339.369 531.635 337.743 531.516 335.581 532.206C333.419 532.896 330.901 534.347 328.187 536.524C322.769 540.871 316.845 547.89 311.768 556.571C306.69 565.252 303.493 573.826 302.389 580.63C301.835 584.039 301.821 586.916 302.297 589.11C302.772 591.303 303.69 592.634 304.856 593.298C306.022 593.963 307.648 594.082 309.81 593.391C311.972 592.701 314.49 591.25 317.204 589.073C322.622 584.727 328.546 577.707 333.623 569.026C338.701 560.345 341.898 551.772 343.002 544.967C343.556 541.559 343.569 538.681 343.094 536.488ZM346.211 545.475C345.03 552.755 341.662 561.7 336.438 570.63C331.214 579.561 325.051 586.912 319.254 591.563C316.36 593.884 313.488 595.589 310.811 596.444C308.134 597.298 305.471 597.353 303.231 596.076C300.991 594.8 299.707 592.496 299.119 589.78C298.53 587.064 298.59 583.757 299.18 580.123C300.361 572.842 303.729 563.898 308.953 554.967C314.177 546.036 320.34 538.685 326.137 534.035C329.031 531.713 331.903 530.009 334.58 529.154C337.257 528.299 339.92 528.245 342.16 529.521C344.4 530.798 345.684 533.101 346.272 535.817C346.861 538.533 346.801 541.84 346.211 545.475Z" fill="#61DAFB"/>
</g>
</g>
<path d="M620.507 384.284L620.507 384.284C622.766 384.282 625.003 384.736 627.091 385.622C629.179 386.508 631.077 387.808 632.676 389.447C634.275 391.087 635.543 393.035 636.408 395.18C637.273 397.325 637.717 399.624 637.715 401.946V401.946V465.621V465.622C637.717 467.944 637.273 470.243 636.408 472.387C635.543 474.532 634.275 476.48 632.676 478.12C631.077 479.76 629.179 481.06 627.091 481.946C625.003 482.831 622.766 483.286 620.507 483.284H620.507H555.924H555.923C553.665 483.286 551.427 482.831 549.34 481.946C547.252 481.06 545.354 479.76 543.755 478.12C542.156 476.48 540.888 474.532 540.023 472.387C539.158 470.243 538.713 467.944 538.715 465.622V465.621L538.715 401.946L538.715 401.946C538.713 399.624 539.158 397.325 540.023 395.18C540.888 393.035 542.156 391.087 543.755 389.447C545.354 387.808 547.252 386.508 549.34 385.622C551.427 384.736 553.665 384.282 555.923 384.284H555.924L620.507 384.284Z" fill="url(#paint5_linear_371_4)" stroke="white"/>
<path d="M624.301 430.443L591.554 397.698C589.669 395.812 586.611 395.812 584.724 397.698L577.925 404.499L586.55 413.124C588.555 412.447 590.853 412.901 592.451 414.499C594.057 416.107 594.507 418.425 593.813 420.437L602.127 428.751C604.138 428.058 606.458 428.505 608.064 430.114C610.309 432.359 610.309 435.996 608.064 438.241C605.819 440.487 602.181 440.487 599.935 438.241C598.246 436.552 597.829 434.071 598.684 431.991L590.931 424.238L590.93 444.64C591.478 444.911 591.994 445.273 592.45 445.727C594.695 447.972 594.695 451.608 592.45 453.856C590.205 456.101 586.566 456.101 584.324 453.856C582.079 451.608 582.079 447.972 584.324 445.727C584.878 445.173 585.52 444.754 586.205 444.473V423.881C585.52 423.601 584.879 423.185 584.323 422.627C582.623 420.928 582.213 418.432 583.085 416.344L574.583 407.839L552.13 430.292C550.244 432.179 550.244 435.238 552.13 437.124L584.876 469.869C586.761 471.755 589.819 471.755 591.707 469.869L624.301 437.279C626.187 435.392 626.187 432.332 624.301 430.446" fill="#F05133"/>
</g>
<defs>
<filter id="filter0_d_371_4" x="0.803833" y="0.292969" width="645.412" height="635.756" filterUnits="userSpaceOnUse" color-interpolation-filters="sRGB">
<feFlood flood-opacity="0" result="BackgroundImageFix"/>
<feColorMatrix in="SourceAlpha" type="matrix" values="0 0 0 0 0 0 0 0 0 0 0 0 0 0 0 0 0 0 127 0" result="hardAlpha"/>
<feOffset dy="15"/>
<feGaussianBlur stdDeviation="4"/>
<feComposite in2="hardAlpha" operator="out"/>
<feColorMatrix type="matrix" values="0 0 0 0 0 0 0 0 0 0 0 0 0 0 0 0 0 0 0.39 0"/>
<feBlend mode="normal" in2="BackgroundImageFix" result="effect1_dropShadow_371_4"/>
<feBlend mode="normal" in="SourceGraphic" in2="effect1_dropShadow_371_4" result="shape"/>
</filter>
<linearGradient id="paint0_linear_371_4" x1="272.695" y1="0.292969" x2="372.695" y2="118.293" gradientUnits="userSpaceOnUse">
<stop stop-color="#87790B"/>
<stop offset="0.557292" stop-color="#FFC700"/>
<stop offset="1" stop-color="#FFC700"/>
</linearGradient>
<linearGradient id="paint1_linear_371_4" x1="538.216" y1="129.558" x2="638.216" y2="229.558" gradientUnits="userSpaceOnUse">
<stop stop-color="#1A3982"/>
<stop offset="0.53125" stop-color="#4D7AE4"/>
<stop offset="0.963542" stop-color="#1D4BB7"/>
</linearGradient>
<linearGradient id="paint2_linear_371_4" x1="8.80383" y1="129.558" x2="108.804" y2="229.558" gradientUnits="userSpaceOnUse">
<stop stop-color="#813616"/>
<stop offset="0.515625" stop-color="#FF4D00"/>
<stop offset="0.963542" stop-color="#FF4D00"/>
</linearGradient>
<linearGradient id="paint3_linear_371_4" x1="8.80396" y1="383.784" x2="108.804" y2="483.784" gradientUnits="userSpaceOnUse">
<stop stop-color="#BBBBBB"/>
<stop offset="0.552083" stop-color="white"/>
<stop offset="1" stop-color="#C9C9C9"/>
</linearGradient>
<linearGradient id="paint4_linear_371_4" x1="266.695" y1="505.049" x2="372.695" y2="613.049" gradientUnits="userSpaceOnUse">
<stop stop-color="#1960D3"/>
<stop offset="1" stop-color="#0A3171" stop-opacity="0.8"/>
</linearGradient>
<linearGradient id="paint5_linear_371_4" x1="538.215" y1="383.784" x2="638.215" y2="483.784" gradientUnits="userSpaceOnUse">
<stop stop-color="#929292"/>
<stop offset="0.541667" stop-color="white"/>
<stop offset="1" stop-color="#E4E4E4"/>
</linearGradient>
<clipPath id="clip0_371_4">
<rect width="100" height="100" fill="white" transform="translate(272.695 0.292969)"/>
</clipPath>
<clipPath id="clip1_371_4">
<rect width="100" height="100" fill="white" transform="translate(538.216 129.558)"/>
</clipPath>
<clipPath id="clip2_371_4">
<rect width="100" height="100" fill="white" transform="translate(8.80383 129.558)"/>
</clipPath>
<clipPath id="clip3_371_4">
<rect width="100" height="100" fill="white" transform="translate(272.695 513.049)"/>
</clipPath>
<clipPath id="clip4_371_4">
<rect width="78" height="68.5" fill="white" transform="translate(283.695 528.549)"/>
</clipPath>
</defs>
</svg>
