<svg width="540" height="188" viewBox="0 0 540 188" fill="none" xmlns="http://www.w3.org/2000/svg">
<rect x="297" y="21" width="224" height="149" fill="url(#paint0_linear_415_11)"/>
<rect x="42" y="95" width="139" height="9" fill="url(#paint1_linear_415_11)"/>
<path d="M179.943 103.408V118H171.111V74.48H188.007C198.247 74.48 203.367 79.2587 203.367 88.816C203.367 94.4907 201.234 98.672 196.967 101.36L203.175 118H193.511L188.455 103.408H179.943ZM188.135 95.856C190.226 95.856 191.783 95.216 192.807 93.936C193.831 92.656 194.343 90.9707 194.343 88.88C194.343 86.7893 193.788 85.1253 192.679 83.888C191.612 82.6507 190.055 82.032 188.007 82.032H179.943V95.856H188.135ZM210.799 118V74.48H225.839L233.519 106.224L241.199 74.48H256.239V118H247.407V84.336H246.447L237.935 116.08H229.103L220.591 84.336H219.631V118H210.799ZM279.112 81.392C274.461 81.392 272.136 82.928 272.136 86C272.136 87.3653 272.712 88.4107 273.864 89.136C275.016 89.8613 277.704 90.9067 281.928 92.272C286.195 93.6373 289.181 95.1947 290.888 96.944C292.595 98.6507 293.448 101.296 293.448 104.88C293.448 109.445 292.061 112.901 289.288 115.248C286.515 117.595 282.888 118.768 278.408 118.768C275.08 118.768 271.005 118.256 266.184 117.232L263.88 116.784L264.776 109.936C270.493 110.704 274.867 111.088 277.896 111.088C282.419 111.088 284.68 109.211 284.68 105.456C284.68 104.091 284.147 103.024 283.08 102.256C282.056 101.488 279.987 100.656 276.872 99.76C271.923 98.352 268.424 96.688 266.376 94.768C264.371 92.8053 263.368 90.096 263.368 86.64C263.368 82.288 264.691 79.0453 267.336 76.912C269.981 74.7787 273.608 73.712 278.216 73.712C281.373 73.712 285.384 74.1387 290.248 74.992L292.552 75.44L291.848 82.416C285.832 81.7333 281.587 81.392 279.112 81.392ZM315.205 118H300.549V74.48H315.205C318.959 74.48 322.053 74.8853 324.485 75.696C326.917 76.464 328.794 77.7653 330.117 79.6C331.482 81.392 332.421 83.5253 332.933 86C333.445 88.432 333.701 91.6107 333.701 95.536C333.701 99.4613 333.466 102.725 332.997 105.328C332.527 107.888 331.631 110.192 330.309 112.24C329.029 114.245 327.151 115.717 324.677 116.656C322.202 117.552 319.045 118 315.205 118ZM324.485 100.72C324.57 99.3547 324.613 97.4773 324.613 95.088C324.613 92.656 324.527 90.7147 324.357 89.264C324.186 87.8133 323.781 86.4907 323.141 85.296C322.501 84.1013 321.541 83.2907 320.261 82.864C319.023 82.3947 317.338 82.16 315.205 82.16H309.381V110.32H315.205C318.405 110.32 320.73 109.509 322.181 107.888C323.418 106.565 324.186 104.176 324.485 100.72ZM341.361 118V74.48H369.521V82.16H350.193V92.336H365.681V99.888H350.193V110.32H369.521V118H341.361ZM400.351 74.48H409.631L399.519 118H383.199L373.087 74.48H382.367L389.919 110.32H392.799L400.351 74.48Z" fill="#FDFDFD"/>
<defs>
<linearGradient id="paint0_linear_415_11" x1="409" y1="21" x2="409" y2="170" gradientUnits="userSpaceOnUse">
<stop stop-color="#5F54E0"/>
<stop offset="1" stop-color="#EE54F1" stop-opacity="0.57"/>
</linearGradient>
<linearGradient id="paint1_linear_415_11" x1="111.5" y1="95" x2="111.5" y2="104" gradientUnits="userSpaceOnUse">
<stop stop-color="#6D59E2"/>
<stop offset="1" stop-color="#E491F4"/>
</linearGradient>
</defs>
</svg>
