<svg width="540" height="188" viewBox="0 0 540 188" fill="none" xmlns="http://www.w3.org/2000/svg">
<rect x="297" y="21" width="224" height="149" fill="url(#paint0_linear_415_11)"/>
<rect y="95" width="139" height="9" fill="url(#paint1_linear_415_11)"/>
<path d="M147.854 107.76C149.134 109.979 151.502 111.088 154.958 111.088C158.414 111.088 160.76 109.979 161.998 107.76C163.278 105.499 163.918 101.744 163.918 96.496C163.918 91.2053 163.278 87.3653 161.998 84.976C160.718 82.5867 158.371 81.392 154.958 81.392C151.544 81.392 149.198 82.5867 147.918 84.976C146.638 87.3653 145.998 91.2053 145.998 96.496C145.998 101.744 146.616 105.499 147.854 107.76ZM168.91 113.392C166.222 116.976 161.571 118.768 154.958 118.768C148.344 118.768 143.672 116.976 140.942 113.392C138.254 109.765 136.91 104.112 136.91 96.432C136.91 88.752 138.254 83.056 140.942 79.344C143.672 75.5893 148.344 73.712 154.958 73.712C161.571 73.712 166.222 75.5893 168.91 79.344C171.64 83.056 173.006 88.752 173.006 96.432C173.006 104.112 171.64 109.765 168.91 113.392ZM176.804 86H185.764L190.884 110.704H192.676L198.052 86H206.756L199.076 118H184.484L176.804 86ZM218.289 105.648C218.332 107.611 218.844 109.04 219.825 109.936C220.849 110.789 222.3 111.216 224.177 111.216C228.145 111.216 231.687 111.088 234.801 110.832L236.593 110.64L236.721 116.976C231.815 118.171 227.377 118.768 223.409 118.768C218.588 118.768 215.089 117.488 212.913 114.928C210.737 112.368 209.649 108.208 209.649 102.448C209.649 90.9707 214.364 85.232 223.793 85.232C233.095 85.232 237.745 90.0533 237.745 99.696L237.105 105.648H218.289ZM229.297 99.12C229.297 96.56 228.892 94.7893 228.081 93.808C227.271 92.784 225.841 92.272 223.793 92.272C221.788 92.272 220.359 92.8053 219.505 93.872C218.695 94.896 218.268 96.6453 218.225 99.12H229.297ZM243.874 118V86H252.386V89.392C255.97 87.2587 259.384 85.872 262.626 85.232V93.872C259.17 94.5973 256.205 95.344 253.73 96.112L252.45 96.56V118H243.874ZM283.175 85.232C287.655 85.232 290.919 86.4693 292.967 88.944C295.057 91.376 296.103 95.7493 296.103 102.064C296.103 108.379 294.908 112.752 292.519 115.184C290.129 117.573 286.012 118.768 280.167 118.768C278.332 118.768 274.983 118.555 270.119 118.128L267.687 117.872V73.2H276.263V86.96C278.993 85.808 281.297 85.232 283.175 85.232ZM280.167 111.088C283.025 111.088 284.945 110.405 285.927 109.04C286.908 107.632 287.399 105.136 287.399 101.552C287.399 95.792 285.607 92.912 282.023 92.912C280.316 92.912 278.695 93.1253 277.159 93.552L276.263 93.744V110.832C278.225 111.003 279.527 111.088 280.167 111.088Z" fill="#FDFDFD"/>
<path d="M302.499 118V86H311.011V89.392C314.595 87.2587 318.009 85.872 321.251 85.232V93.872C317.795 94.5973 314.83 95.344 312.355 96.112L311.075 96.56V118H302.499ZM350.824 95.984V109.296C350.909 110.32 351.08 111.045 351.336 111.472C351.592 111.856 352.125 112.133 352.936 112.304L352.68 118.768C350.504 118.768 348.754 118.619 347.432 118.32C346.152 118.021 344.85 117.424 343.528 116.528C340.456 118.021 337.32 118.768 334.12 118.768C327.506 118.768 324.2 115.269 324.2 108.272C324.2 104.859 325.117 102.448 326.952 101.04C328.786 99.5893 331.602 98.736 335.4 98.48L342.248 97.968V95.984C342.248 94.6613 341.949 93.7653 341.352 93.296C340.754 92.784 339.794 92.528 338.472 92.528L326.44 93.04L326.184 87.088C330.749 85.8507 335.08 85.232 339.176 85.232C343.314 85.232 346.28 86.0853 348.072 87.792C349.906 89.4987 350.824 92.2293 350.824 95.984ZM336.424 104.432C334.034 104.645 332.84 105.925 332.84 108.272C332.84 110.619 333.885 111.792 335.976 111.792C337.597 111.792 339.368 111.536 341.288 111.024L342.248 110.768V103.92L336.424 104.432ZM358.999 118V86H367.575V118H358.999ZM358.999 81.904V73.2H367.575V81.904H358.999ZM384.075 118H375.499V86H384.011V87.792C386.913 86.0853 389.579 85.232 392.011 85.232C396.278 85.232 399.222 86.4907 400.843 89.008C402.465 91.5253 403.275 95.408 403.275 100.656V118H394.699V100.912C394.699 98.1813 394.379 96.176 393.739 94.896C393.099 93.5733 391.819 92.912 389.899 92.912C388.15 92.912 386.465 93.2107 384.843 93.808L384.075 94.064V118Z" fill="white"/>
<defs>
<linearGradient id="paint0_linear_415_11" x1="409" y1="21" x2="409" y2="170" gradientUnits="userSpaceOnUse">
<stop stop-color="#5F54E0"/>
<stop offset="1" stop-color="#EE54F1" stop-opacity="0.57"/>
</linearGradient>
<linearGradient id="paint1_linear_415_11" x1="69.5" y1="95" x2="69.5" y2="104" gradientUnits="userSpaceOnUse">
<stop stop-color="#6D59E2"/>
<stop offset="1" stop-color="#E491F4"/>
</linearGradient>
</defs>
</svg>
