<svg width="1920" height="936" viewBox="0 0 1920 936" fill="none" xmlns="http://www.w3.org/2000/svg">
<path d="M-106.446 74.2307C-78.0355 45.3954 -3.48012 1.08281 67.4532 54.5141C156.12 121.303 159.904 152.577 260.666 123.12C361.427 93.6633 467.553 40.2049 572.321 121.749C677.09 203.292 654.456 259.295 824.309 231.977C994.162 204.66 874.197 85.2793 1055.18 186.052C1236.16 286.824 1205.14 291.774 1366.26 270.355C1527.38 248.936 1449.36 161.876 1615.43 260.662C1781.5 359.449 1673.67 398.557 1801.38 362.097C1903.55 332.928 1939.64 311.572 1944.91 304.54" stroke="url(#paint0_linear_449_2)"/>
<path d="M-118.129 161.956C-74.3811 204.268 30.5715 277.194 100.398 230.402C187.682 171.912 127.823 192.693 206.572 160.305C285.321 127.916 306.355 89.3557 362.79 181.108C419.225 272.861 358.756 303.648 445.334 288.444C531.912 273.24 563.509 177.07 661.076 247.566C758.644 318.063 835.239 383.244 954.41 329.505C1073.58 275.766 1010.26 197.725 1146.72 285.506C1283.18 373.288 1242.32 457.632 1357.24 397.779C1472.17 337.927 1373.77 219.4 1534.16 317.43C1694.55 415.461 1685.47 516.144 1800.83 442.225C1893.11 383.089 1925.83 382.705 1930.65 389.904" stroke="url(#paint1_linear_449_2)"/>
<path d="M-106.979 78.2267C-91.3663 66.5105 -61.8528 52.567 -28.9497 42.7163C4.7846 32.3086 36.5743 35.4692 74.102 59.3704C162.296 121.437 166.902 149.385 265.553 125.7C364.203 102.015 462.396 52.5685 566.298 129.505C670.201 206.442 650.149 255.198 816.56 232.538C902.088 222.887 917.614 191.063 936.492 168.825C955.369 146.586 966.881 138.439 1059.56 190.606C1238.42 290.76 1206.94 299.49 1365.86 276.242C1524.78 252.993 1445.79 164.434 1611.58 263.184C1777.38 361.935 1674.26 403.975 1801.38 365.731C1903.08 335.136 1939 314.778 1944.25 308.423" stroke="url(#paint2_linear_449_2)"/>
<path d="M-107.512 82.2306C-90.4928 73.2158 -57.2073 63.6158 -22.458 51.9181C13.9538 39.1062 41.1611 43.1478 80.7499 64.2345C168.472 121.578 173.899 146.201 270.439 128.288C366.979 110.375 457.238 64.9399 560.274 137.27C663.311 209.599 645.841 251.109 808.81 233.107C894.941 227.463 913.52 200.489 937.412 176.676C961.304 152.863 969.075 141.221 1063.94 195.169C1240.68 294.704 1208.73 307.215 1365.45 282.136C1522.17 257.057 1442.21 166.999 1607.74 265.714C1773.26 364.429 1674.84 409.401 1801.38 369.373C1902.6 337.351 1938.37 317.992 1943.6 312.315" stroke="url(#paint3_linear_449_2)"/>
<path d="M-108.046 86.2421C-89.6202 79.9287 -52.5627 74.6722 -15.9673 61.1274C23.1219 45.9114 45.7468 50.834 87.3966 69.1063C174.646 121.727 180.895 143.024 275.324 130.883C369.753 118.742 452.08 77.319 554.25 145.042C656.419 212.764 641.533 247.028 801.059 233.684C887.792 232.047 909.424 209.924 938.331 184.535C967.238 159.147 971.267 144.01 1068.32 199.739C1242.94 298.655 1210.52 314.947 1365.04 288.038C1519.56 261.129 1438.63 169.573 1603.89 268.251C1769.15 366.93 1675.43 414.835 1801.37 373.023C1902.13 339.573 1937.73 321.213 1942.94 316.214" stroke="url(#paint4_linear_449_2)"/>
<path d="M-108.581 90.2609C-88.7486 86.649 -47.9192 85.7359 -9.47757 70.344C32.2891 52.724 50.3316 58.5275 94.0425 73.9853C180.82 121.884 187.89 139.855 280.208 133.486C372.527 127.117 446.92 89.7053 548.224 152.821C649.527 215.936 637.223 242.953 793.307 234.267C880.642 236.638 905.328 219.365 939.249 192.402C973.171 165.438 973.458 146.807 1072.7 204.316C1245.2 302.614 1212.32 322.687 1364.64 293.947C1516.95 265.208 1435.06 172.153 1600.04 270.796C1765.03 369.438 1676.01 420.275 1801.37 376.68C1901.65 341.803 1937.1 324.442 1942.28 320.12" stroke="url(#paint5_linear_449_2)"/>
<path d="M-109.117 94.2868C-87.878 93.3762 -43.2766 96.8066 -2.98882 79.5677C41.4553 59.5435 54.9154 66.2281 100.687 78.8714C186.993 122.047 194.884 136.693 285.092 136.096C375.299 135.499 441.759 102.099 542.197 160.607C642.634 219.116 632.912 238.886 785.555 234.858C873.491 241.236 901.23 228.813 940.167 200.275C979.103 171.736 975.649 149.611 1077.08 208.901C1247.46 306.58 1214.11 330.433 1364.23 299.863C1514.35 269.294 1431.48 174.741 1596.19 273.348C1760.91 371.954 1676.59 425.723 1801.36 380.344C1901.17 344.041 1936.46 327.677 1941.62 324.034" stroke="url(#paint6_linear_449_2)"/>
<path d="M-109.654 98.3194C-87.0082 100.11 -38.6349 107.884 3.49907 88.7982C50.6207 66.3699 59.4983 73.9354 107.331 83.7643C193.164 122.217 201.877 133.538 289.974 138.712C378.071 143.887 436.598 114.499 536.169 168.4C635.74 222.302 628.601 234.826 777.801 235.456C866.339 245.841 897.132 238.269 941.083 208.155C985.034 178.042 977.838 152.421 1081.46 213.492C1249.72 310.553 1215.89 338.186 1363.82 305.786C1511.74 273.387 1427.9 177.336 1592.34 275.906C1756.78 374.477 1677.17 431.178 1801.35 384.015C1900.7 346.284 1935.82 330.92 1940.96 327.954" stroke="url(#paint7_linear_449_2)"/>
<path d="M-110.192 102.359C-86.1394 106.851 -33.9941 118.968 9.9861 98.0354C59.7852 73.203 64.0804 81.6495 113.974 88.6639C199.335 122.394 208.87 130.389 294.855 141.336C380.841 152.282 431.436 126.906 530.141 176.2C628.845 225.495 624.288 230.773 770.046 236.06C859.187 250.453 893.033 247.731 941.999 216.042C990.964 184.354 980.027 155.238 1085.84 218.09C1251.98 314.532 1217.68 345.946 1363.4 311.716C1509.13 277.486 1424.31 179.937 1588.49 278.471C1752.66 377.006 1677.75 436.639 1801.34 387.692C1900.22 348.535 1935.18 334.169 1940.3 331.881" stroke="url(#paint8_linear_449_2)"/>
<path d="M-110.731 106.404C-85.2713 113.598 -29.3541 130.059 16.4723 107.279C68.9488 80.0423 68.6616 89.3697 120.617 93.5697C205.505 122.577 215.861 127.247 299.736 143.965C383.611 160.684 426.272 139.319 524.111 184.006C621.95 228.694 619.975 226.725 762.291 236.67C852.033 255.071 888.933 257.199 942.913 223.935C996.894 190.672 982.215 158.062 1090.22 222.694C1254.24 318.517 1219.47 353.712 1362.99 317.652C1506.51 281.592 1420.73 182.544 1584.64 281.043C1748.54 379.541 1678.33 442.107 1801.34 391.376C1899.74 350.792 1934.54 337.425 1939.64 335.814" stroke="url(#paint9_linear_449_2)"/>
<path d="M-111.271 110.456C-84.4041 120.351 -24.7149 141.155 22.9576 116.528C78.1116 86.8877 73.242 97.0961 127.258 98.4816C211.674 122.766 222.851 124.111 304.616 146.601C386.38 169.091 421.108 151.738 518.081 191.818C615.053 231.899 615.661 222.684 754.535 237.287C844.879 259.695 884.832 266.673 943.827 231.834C1002.82 196.996 984.402 160.891 1094.59 227.304C1256.49 322.509 1221.26 361.485 1362.58 323.594C1503.9 285.704 1417.15 185.158 1580.78 283.62C1744.42 382.083 1678.91 447.58 1801.33 395.066C1899.26 353.055 1933.9 340.686 1938.98 339.753" stroke="url(#paint10_linear_449_2)"/>
<path d="M-111.811 114.514C-83.5377 127.11 -20.0765 152.258 29.4422 125.784C87.2736 93.739 77.8216 104.828 133.899 103.399C217.843 122.961 229.841 120.98 309.495 149.242C389.148 177.505 415.943 164.163 512.05 199.636C608.156 235.11 611.346 218.649 746.778 237.91C837.724 264.325 880.731 276.153 944.74 239.74C1008.75 203.326 986.588 163.726 1098.97 231.92C1258.75 326.506 1223.04 369.263 1362.17 329.542C1501.29 289.822 1413.57 187.777 1576.93 286.204C1740.29 384.63 1679.49 453.06 1801.32 398.762C1898.78 355.323 1933.26 343.954 1938.32 343.698" stroke="url(#paint11_linear_449_2)"/>
<path d="M-112.352 118.577C-82.6721 133.875 -15.439 163.366 35.9259 135.045C96.4348 100.596 82.4004 112.567 140.539 108.323C224.01 123.162 236.83 117.856 314.373 151.89C391.916 185.924 410.778 176.594 506.018 207.46C601.258 238.327 607.03 214.619 739.02 238.538C830.568 268.961 876.628 285.639 945.653 247.651C1014.68 209.662 988.773 166.568 1103.34 236.542C1261 330.51 1224.83 377.047 1361.75 335.496C1498.67 293.945 1409.98 190.403 1573.07 288.793C1736.17 387.183 1680.07 458.545 1801.3 402.464C1898.3 357.598 1932.62 347.227 1937.65 347.65" stroke="url(#paint12_linear_449_2)"/>
<path d="M-112.894 122.646C-81.8071 140.645 -10.8021 174.48 42.409 144.312C105.595 107.459 86.9785 120.31 147.178 113.252C230.177 123.369 243.818 114.737 319.25 154.543C394.682 194.349 405.611 189.031 499.985 215.29C594.359 241.549 602.714 210.595 731.261 239.172C823.411 273.602 872.525 295.131 946.564 255.567C1020.6 216.003 990.958 169.414 1107.72 241.169C1263.25 334.519 1226.61 384.836 1361.34 341.455C1496.06 298.075 1406.4 193.033 1569.22 291.388C1732.04 389.742 1680.64 464.036 1801.29 406.171C1897.81 359.878 1931.97 350.506 1936.99 351.606" stroke="url(#paint13_linear_449_2)"/>
<path d="M-113.437 126.72C-80.9429 147.421 -6.16591 185.599 48.8914 153.584C114.755 114.327 91.5559 128.059 153.816 118.187C236.343 123.58 250.806 111.623 324.127 157.201C397.449 202.779 400.444 201.472 493.952 223.124C587.46 244.777 598.397 206.577 723.502 239.811C816.254 278.248 868.421 304.628 947.475 263.489C1026.53 222.35 993.142 172.266 1112.09 245.802C1265.51 338.533 1228.4 392.631 1360.92 347.42C1493.44 302.209 1402.81 195.67 1565.36 293.988C1727.91 392.306 1681.22 469.532 1801.28 409.883C1897.33 362.164 1931.33 353.79 1936.32 355.568" stroke="url(#paint14_linear_449_2)"/>
<path d="M-113.98 130.8C-80.0794 154.202 -1.53044 196.723 55.373 162.861C123.914 121.2 96.1326 135.813 160.454 123.126C242.509 123.797 257.793 108.515 329.003 159.864C400.214 211.214 395.277 213.919 487.918 230.964C580.559 248.01 594.079 202.563 715.742 240.455C809.096 282.9 864.317 314.13 948.385 271.416C1032.45 228.702 995.325 175.124 1116.46 250.44C1267.76 342.552 1230.18 400.431 1360.5 353.39C1490.83 306.349 1399.22 198.311 1561.5 296.593C1723.78 394.875 1681.79 475.034 1801.27 413.601C1896.85 364.454 1930.69 357.079 1935.66 359.535" stroke="url(#paint15_linear_449_2)"/>
<path d="M-114.524 134.884C-79.2166 160.988 3.10437 207.853 61.854 172.143C133.073 128.078 100.709 143.572 167.091 128.071C248.673 124.019 264.779 105.411 333.879 162.533C402.979 219.654 390.108 226.371 481.883 238.809C573.659 251.247 589.761 198.555 707.981 241.105C801.937 287.557 860.212 323.637 949.295 279.348C1038.38 235.059 997.508 177.986 1120.83 255.083C1270.01 346.577 1231.96 408.236 1360.09 359.365C1488.21 310.493 1395.64 200.957 1557.65 299.203C1719.66 397.45 1682.37 480.54 1801.25 417.324C1896.36 366.75 1930.04 360.374 1934.99 363.507" stroke="url(#paint16_linear_449_2)"/>
<path d="M-115.068 138.974C-78.3544 167.778 7.73852 218.987 68.3344 181.431C142.231 134.961 105.284 151.336 173.727 133.021C254.838 124.246 271.765 102.313 338.754 165.206C405.743 228.1 384.939 238.828 475.848 246.659C566.757 254.49 585.442 194.551 700.22 241.759C794.778 292.218 856.106 333.149 950.204 287.285C1044.3 241.421 999.69 180.853 1125.2 259.731C1272.26 350.606 1233.74 416.046 1359.67 365.345C1485.59 314.643 1392.05 203.608 1553.79 301.819C1715.53 400.029 1682.94 486.052 1801.24 421.051C1895.88 369.051 1929.39 363.673 1934.32 367.484" stroke="url(#paint17_linear_449_2)"/>
<path d="M-115.614 143.068C-77.4928 174.574 12.372 230.126 74.8141 190.723C151.388 141.849 109.859 159.105 180.363 137.975C261.001 124.478 278.75 99.2189 343.628 167.884C408.506 236.55 379.77 251.29 469.812 254.514C559.855 257.738 581.122 190.553 692.458 242.418C787.618 296.885 852 342.665 951.112 295.227C1050.22 247.788 1001.87 183.725 1129.57 264.384C1274.51 354.64 1235.53 423.861 1359.25 371.329C1482.98 318.798 1388.46 206.264 1549.93 304.439C1711.4 402.613 1683.52 491.568 1801.22 424.784C1895.39 371.356 1928.75 366.977 1933.66 371.466" stroke="url(#paint18_linear_449_2)"/>
<path d="M-116.16 147.166C-76.6319 181.374 17.0049 241.27 81.2931 200.019C160.544 148.742 114.433 166.879 186.998 142.934C267.164 124.714 285.734 96.1297 348.501 170.567C411.269 245.004 374.599 263.756 463.776 262.373C552.952 260.99 576.802 186.558 684.696 243.082C780.458 301.556 847.892 352.187 952.02 303.173C1056.15 254.159 1004.05 186.602 1133.94 269.041C1276.76 358.679 1237.31 431.681 1358.83 377.319C1480.36 322.956 1384.87 208.925 1546.07 307.063C1707.27 405.201 1684.09 497.089 1801.21 428.521C1894.9 373.666 1928.1 370.285 1932.99 375.452" stroke="url(#paint19_linear_449_2)"/>
<path d="M-116.706 151.27C-75.7715 188.179 21.6372 252.418 87.7716 209.32C169.7 155.638 119.006 174.657 193.633 147.898C273.326 124.955 292.718 93.045 353.374 173.254C414.031 253.463 369.428 276.227 457.739 270.237C546.049 264.247 572.481 182.569 676.933 243.75C773.296 306.231 843.785 361.712 952.927 311.124C1062.07 260.535 1006.23 189.483 1138.31 273.703C1279.01 362.722 1239.09 439.504 1358.41 383.312C1477.74 327.12 1381.28 211.59 1542.21 309.692C1703.14 407.794 1684.66 502.614 1801.19 432.262C1894.42 375.98 1927.45 373.598 1932.32 379.443" stroke="url(#paint20_linear_449_2)"/>
<path d="M-117.253 155.377C-74.9117 194.988 26.269 263.57 94.2496 218.625C178.856 162.54 123.579 182.439 200.267 152.865C279.488 125.2 299.701 89.9646 358.247 175.945C416.793 261.926 364.257 288.702 451.701 278.105C539.145 267.508 568.159 178.583 669.169 244.422C766.135 310.911 839.677 371.243 953.833 319.079C1067.99 266.915 1008.41 192.368 1142.68 278.369C1281.26 366.769 1240.87 447.332 1357.99 389.31C1475.12 331.288 1377.69 214.259 1538.35 312.326C1699.01 410.392 1685.23 508.143 1801.17 436.008C1893.93 378.299 1926.8 376.916 1931.65 383.438" stroke="url(#paint21_linear_449_2)"/>
<path d="M1933.25 832.19C1910.47 873.04 1846.61 941.091 1773.39 886.497C1681.86 818.254 1674.25 779.858 1583.98 833.837C1493.7 887.816 1401.55 972.675 1293.06 888.762C1184.57 804.848 1198.41 731.069 1043.32 794.174C888.232 857.279 1015.85 985.834 833.669 890.928C651.488 796.021 679.809 784.547 532.111 838.797C384.414 893.046 468.636 988.415 300.643 893.441C132.65 798.468 228.266 731.233 113.734 798.557C22.1078 852.416 -8.81442 885.24 -12.8223 894.919" stroke="url(#paint22_linear_449_2)"/>
<path d="M1932.72 720.676C1886.34 675.322 1778.8 602.198 1719.68 672.537C1645.78 760.461 1698.98 724.298 1629.65 778.178C1560.32 832.058 1545.7 883.79 1481.03 778.879C1416.35 673.968 1468.82 625.207 1389.93 658.971C1311.05 692.735 1294.08 818.193 1193.75 746.842C1093.43 675.49 1013.39 607.194 909.084 694.631C804.781 782.068 874.099 868.686 735.197 782.396C596.295 696.106 623.464 583.831 523.923 678.176C424.381 772.521 531.742 903.692 369.153 808.693C206.564 713.694 201.911 586.449 103.803 698.428C25.3172 788.011 -5.19067 794.077 -10.6339 785.913" stroke="url(#paint23_linear_449_2)"/>
<path d="M1933.22 827.11C1920.17 844.403 1894.42 866.849 1864.97 884.765C1834.82 903.519 1804.71 905.001 1766.54 881.569C1676.08 819.142 1668.13 785.038 1579.07 831.45C1490.02 877.863 1404.75 956.359 1297.67 878.05C1190.59 799.74 1202.96 735.448 1050.48 792.15C971.856 818.802 961.504 861.184 946.771 892.17C932.038 923.156 922.347 935.293 828.981 885.99C648.861 791.494 677.127 775.22 531.722 831.378C386.318 887.537 471.642 984.611 303.906 889.636C136.17 794.661 227.012 724.569 113.262 794.019C22.2617 849.58 -8.64078 881.129 -12.717 889.959" stroke="url(#paint24_linear_449_2)"/>
<path d="M1933.2 822.021C1918.48 836.181 1888.64 853.849 1857.71 874.386C1825.37 896.598 1799.43 896.198 1759.7 876.632C1670.29 820.02 1662.01 790.207 1574.17 829.054C1486.34 867.9 1407.96 940.034 1302.29 867.328C1196.62 794.622 1207.52 739.817 1057.65 790.117C977.936 811.869 964.099 848.716 944.888 882.525C925.676 916.334 919.936 932.195 824.293 881.043C646.234 786.957 674.445 765.882 531.334 823.951C388.222 882.019 474.648 980.797 307.17 885.821C139.691 790.845 225.758 717.895 112.79 789.472C22.4158 846.733 -8.46701 877.009 -12.6116 884.989" stroke="url(#paint25_linear_449_2)"/>
<path d="M1933.17 816.921C1916.79 827.949 1882.86 840.839 1850.44 863.997C1815.92 889.668 1794.14 887.385 1752.86 871.685C1664.5 820.888 1655.89 795.367 1569.27 826.648C1482.66 857.928 1411.16 923.699 1306.9 856.597C1202.64 789.494 1212.08 744.177 1064.81 788.074C984.015 804.926 966.694 836.239 943.004 872.871C919.314 909.502 917.525 929.087 819.604 876.085C643.607 782.41 671.763 756.535 530.945 816.513C390.126 876.49 477.654 976.974 310.433 881.996C143.212 787.019 224.504 711.211 112.318 784.915C22.5695 843.877 -8.29346 872.879 -12.5064 880.009" stroke="url(#paint26_linear_449_2)"/>
<path d="M1933.15 811.813C1915.1 819.708 1877.08 827.819 1843.18 853.599C1806.47 882.728 1788.86 878.563 1746.01 866.728C1658.72 821.747 1649.77 800.518 1564.37 824.232C1478.97 847.946 1414.36 907.354 1311.51 845.856C1208.66 784.357 1216.63 748.527 1071.98 786.021C990.095 797.973 969.29 823.753 941.121 863.207C912.953 902.661 915.113 925.969 814.916 871.119C640.98 777.853 669.081 747.179 530.556 809.066C392.031 870.952 480.66 973.141 313.697 878.162C146.733 783.184 223.25 704.518 111.846 780.348C22.7233 841.012 -8.11991 868.739 -12.4012 875.02" stroke="url(#paint27_linear_449_2)"/>
<path d="M1933.13 806.695C1913.41 811.458 1871.3 814.791 1835.92 843.192C1797.02 875.779 1783.57 869.732 1739.17 861.763C1652.93 822.597 1643.65 805.66 1559.47 821.808C1475.29 837.956 1417.57 891.001 1316.13 835.106C1214.69 779.211 1221.19 752.869 1079.14 783.96C996.175 791.012 971.885 811.258 939.238 853.534C906.591 895.811 912.702 922.843 810.228 866.143C638.352 773.288 666.398 737.814 530.167 801.61C393.935 865.406 483.666 969.299 316.96 874.319C150.253 779.34 221.996 697.817 111.374 775.773C22.877 838.138 -7.94661 864.591 -12.2962 870.022" stroke="url(#paint28_linear_449_2)"/>
<path d="M1933.1 801.569C1911.72 803.2 1865.52 801.754 1828.65 832.776C1787.56 868.822 1778.29 860.892 1732.33 856.789C1647.14 823.439 1637.53 810.793 1554.57 819.375C1471.61 827.956 1420.77 874.639 1320.74 824.348C1220.71 774.056 1225.75 757.201 1086.31 781.89C1002.25 784.042 974.48 798.754 937.354 843.853C900.229 888.952 910.29 919.708 805.54 861.159C635.725 768.714 663.716 728.44 529.778 794.145C395.839 859.851 486.672 965.449 320.223 870.468C153.774 775.487 220.742 691.106 110.902 771.189C23.0307 835.255 -7.77314 860.434 -12.1911 865.015" stroke="url(#paint29_linear_449_2)"/>
<path d="M1933.08 796.434C1910.03 794.933 1859.74 788.709 1821.39 822.351C1778.11 861.856 1773 852.044 1725.48 851.806C1641.36 824.271 1631.41 815.918 1549.67 816.933C1467.93 817.949 1423.98 858.268 1325.36 813.581C1226.73 768.893 1230.3 761.526 1093.47 779.812C1008.33 777.063 977.075 786.241 935.471 834.163C893.867 882.084 907.879 916.565 800.851 856.166C633.097 764.132 661.034 719.057 529.388 786.672C397.743 854.287 489.678 961.59 323.486 866.608C157.295 771.626 219.488 684.387 110.43 766.596C23.1843 832.363 -7.59975 856.268 -12.0861 859.999" stroke="url(#paint30_linear_449_2)"/>
<path d="M1933.05 791.292C1908.34 786.658 1853.96 775.655 1814.13 811.919C1768.66 854.882 1767.72 843.188 1718.64 846.816C1635.57 825.096 1625.29 821.034 1544.76 814.484C1464.24 807.933 1427.18 841.89 1329.97 802.806C1232.76 763.722 1234.86 765.842 1100.63 777.726C1014.41 770.077 979.67 773.721 933.587 824.465C887.505 875.209 905.467 913.414 796.163 851.166C630.47 759.541 658.352 709.667 528.999 779.191C399.647 848.715 492.684 957.723 326.75 862.739C160.815 767.756 218.234 677.66 109.958 761.996C23.3381 829.464 -7.42624 852.094 -11.9809 854.976" stroke="url(#paint31_linear_449_2)"/>
<path d="M1933.03 786.141C1906.64 778.375 1848.18 762.594 1806.86 801.479C1759.21 847.9 1762.43 834.325 1711.8 841.818C1629.78 825.913 1619.17 826.144 1539.86 812.027C1460.56 797.91 1430.39 825.503 1334.58 792.023C1238.78 758.543 1239.42 770.151 1107.8 775.632C1020.49 763.082 982.265 761.193 931.704 814.759C881.143 868.326 903.056 910.255 791.475 846.157C627.842 754.943 655.67 700.269 528.61 771.702C401.551 843.136 495.69 953.848 330.013 858.864C164.336 763.879 216.979 670.926 109.486 757.388C23.4917 826.557 -7.25293 847.913 -11.8759 849.945" stroke="url(#paint32_linear_449_2)"/>
<path d="M1933 780.983C1904.95 770.085 1842.4 749.525 1799.6 791.031C1749.76 840.911 1757.14 825.453 1704.95 836.812C1624 826.723 1613.05 831.245 1534.96 809.562C1456.88 787.879 1433.59 809.11 1339.2 781.233C1244.81 753.357 1243.97 774.452 1114.96 773.53C1026.57 756.081 984.86 748.657 929.82 805.046C874.781 861.435 900.644 907.088 786.786 841.141C625.215 750.338 652.987 690.863 528.221 764.206C403.455 837.549 498.695 949.966 333.276 854.98C167.856 759.995 215.725 664.183 109.014 752.772C23.645 823.642 -7.07982 843.725 -11.7712 844.907" stroke="url(#paint33_linear_449_2)"/>
<path d="M1932.98 775.818C1903.26 761.787 1836.62 736.449 1792.34 780.576C1740.31 833.915 1751.86 816.574 1698.11 831.799C1618.21 827.525 1606.93 836.339 1530.06 807.09C1453.19 777.84 1436.79 792.708 1343.81 770.436C1250.83 748.163 1248.53 778.745 1122.13 771.421C1032.65 749.071 987.455 736.114 927.937 795.325C868.418 854.537 898.232 903.914 782.098 836.118C622.587 745.725 650.305 681.45 527.831 756.702C405.358 831.954 501.701 946.076 336.539 851.09C171.376 756.103 214.47 657.434 108.541 748.148C23.7984 820.72 -6.90688 839.528 -11.6666 839.861" stroke="url(#paint34_linear_449_2)"/>
<path d="M1932.96 770.646C1901.57 753.483 1830.84 723.366 1785.07 770.115C1730.86 826.912 1746.57 807.689 1691.26 826.779C1612.42 828.321 1600.8 841.426 1525.16 804.611C1449.51 767.795 1440 776.3 1348.43 759.631C1256.85 742.962 1253.09 783.032 1129.29 769.305C1038.73 742.055 990.05 723.564 926.053 785.598C862.056 847.632 895.821 900.734 777.409 831.088C619.959 741.105 647.622 672.03 527.442 749.192C407.262 826.353 504.707 942.18 339.802 847.192C174.897 752.204 213.216 650.677 108.069 743.518C23.952 817.792 -6.7335 835.325 -11.5616 834.808" stroke="url(#paint35_linear_449_2)"/>
<path d="M1932.93 765.467C1899.88 745.171 1825.06 710.276 1777.81 759.646C1721.41 819.901 1741.29 798.796 1684.42 821.752C1606.63 829.109 1594.68 846.506 1520.26 802.125C1445.83 757.743 1443.2 759.885 1353.04 748.82C1262.88 737.754 1257.64 787.312 1136.46 767.182C1044.81 735.032 992.645 711.007 924.169 775.864C855.694 840.72 893.409 897.546 772.721 826.051C617.332 736.478 644.94 662.603 527.053 741.674C409.166 820.744 507.712 938.277 343.065 843.287C178.417 748.298 211.962 643.914 107.597 738.881C24.1054 814.856 -6.56032 831.115 -11.4567 829.748" stroke="url(#paint36_linear_449_2)"/>
<path d="M1932.91 760.281C1898.19 736.853 1819.28 697.179 1770.55 749.17C1711.96 812.884 1736 789.897 1677.58 816.718C1600.85 829.891 1588.56 851.58 1515.36 799.632C1442.15 747.684 1446.41 743.464 1357.65 738.002C1268.9 732.54 1262.2 791.585 1143.62 765.053C1050.89 728.003 995.239 698.443 922.286 766.123C849.332 833.802 890.997 894.352 768.032 821.007C614.704 731.845 642.257 653.17 526.664 734.15C411.07 815.13 510.718 934.367 346.328 839.376C181.938 744.386 210.707 637.144 107.125 734.238C24.2589 811.913 -6.38714 826.899 -11.3519 824.682" stroke="url(#paint37_linear_449_2)"/>
<path d="M1932.88 755.089C1896.5 728.529 1813.5 684.077 1763.28 738.689C1702.51 805.861 1730.71 780.992 1670.73 811.678C1595.06 830.666 1582.44 856.647 1510.45 797.133C1438.46 737.619 1449.61 727.036 1362.27 727.178C1274.92 727.32 1266.75 795.852 1150.78 762.917C1056.97 720.967 997.834 685.874 920.402 756.375C842.97 826.877 888.585 891.151 763.344 815.957C612.076 727.205 639.575 643.73 526.274 726.619C412.973 809.509 513.724 930.451 349.591 835.459C185.458 740.467 209.453 630.368 106.653 729.588C24.4122 808.965 -6.21402 822.676 -11.2471 819.609" stroke="url(#paint38_linear_449_2)"/>
<path d="M1932.86 749.891C1894.81 720.198 1807.72 670.967 1756.02 728.201C1693.05 798.832 1725.43 772.08 1663.89 806.632C1589.27 831.435 1576.32 861.708 1505.55 794.628C1434.78 727.548 1452.81 710.602 1366.88 716.347C1280.95 722.093 1271.31 800.113 1157.95 760.775C1063.05 713.925 1000.43 673.297 918.518 746.622C836.607 819.946 886.173 887.944 758.655 810.901C609.449 722.559 636.892 634.284 525.885 719.083C414.877 803.881 516.729 926.528 352.854 831.535C188.978 736.542 208.198 623.585 106.18 724.932C24.5656 806.009 -6.04094 818.447 -11.1424 814.53" stroke="url(#paint39_linear_449_2)"/>
<path d="M1932.83 744.686C1893.12 711.862 1801.94 657.852 1748.75 717.707C1683.6 791.796 1720.14 763.162 1657.04 801.58C1583.49 832.199 1570.2 866.763 1500.65 792.117C1431.1 717.47 1456.02 694.161 1371.49 705.511C1286.97 716.86 1275.87 804.367 1165.11 758.627C1069.13 706.876 1003.02 660.715 916.634 736.862C830.245 813.009 883.761 884.731 753.966 805.838C606.821 717.907 634.21 624.832 525.495 711.54C416.781 798.248 519.735 922.6 356.117 827.605C192.498 732.611 206.944 616.796 105.708 720.27C24.7189 803.048 -5.868 814.211 -11.0378 809.445" stroke="url(#paint40_linear_449_2)"/>
<path d="M1932.81 739.476C1891.43 703.519 1796.16 644.731 1741.49 707.207C1674.15 784.755 1714.86 754.239 1650.2 796.522C1577.7 832.956 1564.08 871.812 1495.75 789.6C1427.42 707.387 1459.22 677.715 1376.11 694.668C1292.99 711.621 1280.42 808.616 1172.28 756.473C1075.21 699.822 1005.62 648.127 914.751 727.097C823.883 806.066 881.35 881.512 749.278 800.77C604.193 713.249 631.527 615.374 525.106 703.991C418.685 792.608 522.74 918.665 359.379 823.67C196.019 728.674 205.689 610.002 105.235 715.602C24.8722 800.081 -5.69497 809.97 -10.9331 804.355" stroke="url(#paint41_linear_449_2)"/>
<path d="M1932.78 734.26C1889.74 695.171 1790.38 631.605 1734.23 696.701C1664.7 777.708 1709.57 745.309 1643.36 791.458C1571.91 833.708 1557.96 876.856 1490.85 787.077C1423.73 697.298 1462.43 661.264 1380.72 683.82C1299.02 706.377 1284.98 812.859 1179.44 754.313C1081.29 692.763 1008.21 635.534 912.867 717.326C817.52 799.118 878.938 878.288 744.589 795.696C601.565 708.585 628.845 605.911 524.716 696.437C420.588 786.963 525.746 914.725 362.642 819.729C199.539 724.732 204.435 603.202 104.763 710.928C25.0256 797.109 -5.52164 805.724 -10.8281 799.258" stroke="url(#paint42_linear_449_2)"/>
<path d="M1932.76 729.039C1888.05 686.817 1784.6 618.472 1726.96 686.19C1655.25 770.655 1704.29 736.375 1636.51 786.389C1566.12 834.454 1551.84 881.894 1485.94 784.549C1420.05 687.204 1465.63 644.806 1385.33 672.967C1305.04 701.127 1289.53 817.097 1186.6 752.148C1087.36 685.697 1010.81 622.934 910.983 707.549C811.158 792.163 876.526 875.058 739.9 790.617C598.937 703.916 626.162 596.442 524.327 688.877C422.492 781.313 528.751 910.779 365.905 815.782C203.059 720.784 203.18 596.396 104.291 706.249C25.1788 794.131 -5.34883 801.471 -10.7237 794.156" stroke="url(#paint43_linear_449_2)"/>
<defs>
<linearGradient id="paint0_linear_449_2" x1="926.312" y1="136.219" x2="909.177" y2="264.88" gradientUnits="userSpaceOnUse">
<stop offset="0.0416667" stop-color="#3CF3FF"/>
<stop offset="0.682292" stop-color="#9E84BE"/>
<stop offset="1" stop-color="#292C2D" stop-opacity="0.96"/>
</linearGradient>
<linearGradient id="paint1_linear_449_2" x1="915.592" y1="205.858" x2="894.452" y2="364.598" gradientUnits="userSpaceOnUse">
<stop offset="0.0416667" stop-color="#3CF3FF"/>
<stop offset="0.682292" stop-color="#9E84BE"/>
<stop offset="1" stop-color="#292C2D" stop-opacity="0.96"/>
</linearGradient>
<linearGradient id="paint2_linear_449_2" x1="925.801" y1="139.535" x2="908.552" y2="269.059" gradientUnits="userSpaceOnUse">
<stop offset="0.0416667" stop-color="#3CF3FF"/>
<stop offset="0.682292" stop-color="#9E84BE"/>
<stop offset="1" stop-color="#292C2D" stop-opacity="0.96"/>
</linearGradient>
<linearGradient id="paint3_linear_449_2" x1="925.291" y1="142.851" x2="907.926" y2="273.245" gradientUnits="userSpaceOnUse">
<stop offset="0.0416667" stop-color="#3CF3FF"/>
<stop offset="0.682292" stop-color="#9E84BE"/>
<stop offset="1" stop-color="#292C2D" stop-opacity="0.96"/>
</linearGradient>
<linearGradient id="paint4_linear_449_2" x1="924.78" y1="146.167" x2="907.298" y2="277.44" gradientUnits="userSpaceOnUse">
<stop offset="0.0416667" stop-color="#3CF3FF"/>
<stop offset="0.682292" stop-color="#9E84BE"/>
<stop offset="1" stop-color="#292C2D" stop-opacity="0.96"/>
</linearGradient>
<linearGradient id="paint5_linear_449_2" x1="924.27" y1="149.483" x2="906.67" y2="281.642" gradientUnits="userSpaceOnUse">
<stop offset="0.0416667" stop-color="#3CF3FF"/>
<stop offset="0.682292" stop-color="#9E84BE"/>
<stop offset="1" stop-color="#292C2D" stop-opacity="0.96"/>
</linearGradient>
<linearGradient id="paint6_linear_449_2" x1="923.759" y1="152.799" x2="906.041" y2="285.851" gradientUnits="userSpaceOnUse">
<stop offset="0.0416667" stop-color="#3CF3FF"/>
<stop offset="0.682292" stop-color="#9E84BE"/>
<stop offset="1" stop-color="#292C2D" stop-opacity="0.96"/>
</linearGradient>
<linearGradient id="paint7_linear_449_2" x1="923.249" y1="156.115" x2="905.41" y2="290.066" gradientUnits="userSpaceOnUse">
<stop offset="0.0416667" stop-color="#3CF3FF"/>
<stop offset="0.682292" stop-color="#9E84BE"/>
<stop offset="1" stop-color="#292C2D" stop-opacity="0.96"/>
</linearGradient>
<linearGradient id="paint8_linear_449_2" x1="922.738" y1="159.432" x2="904.779" y2="294.289" gradientUnits="userSpaceOnUse">
<stop offset="0.0416667" stop-color="#3CF3FF"/>
<stop offset="0.682292" stop-color="#9E84BE"/>
<stop offset="1" stop-color="#292C2D" stop-opacity="0.96"/>
</linearGradient>
<linearGradient id="paint9_linear_449_2" x1="922.228" y1="162.748" x2="904.147" y2="298.517" gradientUnits="userSpaceOnUse">
<stop offset="0.0416667" stop-color="#3CF3FF"/>
<stop offset="0.682292" stop-color="#9E84BE"/>
<stop offset="1" stop-color="#292C2D" stop-opacity="0.96"/>
</linearGradient>
<linearGradient id="paint10_linear_449_2" x1="921.717" y1="166.064" x2="903.514" y2="302.752" gradientUnits="userSpaceOnUse">
<stop offset="0.0416667" stop-color="#3CF3FF"/>
<stop offset="0.682292" stop-color="#9E84BE"/>
<stop offset="1" stop-color="#292C2D" stop-opacity="0.96"/>
</linearGradient>
<linearGradient id="paint11_linear_449_2" x1="921.207" y1="169.38" x2="902.881" y2="306.993" gradientUnits="userSpaceOnUse">
<stop offset="0.0416667" stop-color="#3CF3FF"/>
<stop offset="0.682292" stop-color="#9E84BE"/>
<stop offset="1" stop-color="#292C2D" stop-opacity="0.96"/>
</linearGradient>
<linearGradient id="paint12_linear_449_2" x1="920.697" y1="172.696" x2="902.246" y2="311.24" gradientUnits="userSpaceOnUse">
<stop offset="0.0416667" stop-color="#3CF3FF"/>
<stop offset="0.682292" stop-color="#9E84BE"/>
<stop offset="1" stop-color="#292C2D" stop-opacity="0.96"/>
</linearGradient>
<linearGradient id="paint13_linear_449_2" x1="920.186" y1="176.012" x2="901.611" y2="315.492" gradientUnits="userSpaceOnUse">
<stop offset="0.0416667" stop-color="#3CF3FF"/>
<stop offset="0.682292" stop-color="#9E84BE"/>
<stop offset="1" stop-color="#292C2D" stop-opacity="0.96"/>
</linearGradient>
<linearGradient id="paint14_linear_449_2" x1="919.676" y1="179.328" x2="900.976" y2="319.749" gradientUnits="userSpaceOnUse">
<stop offset="0.0416667" stop-color="#3CF3FF"/>
<stop offset="0.682292" stop-color="#9E84BE"/>
<stop offset="1" stop-color="#292C2D" stop-opacity="0.96"/>
</linearGradient>
<linearGradient id="paint15_linear_449_2" x1="919.165" y1="182.645" x2="900.339" y2="324.012" gradientUnits="userSpaceOnUse">
<stop offset="0.0416667" stop-color="#3CF3FF"/>
<stop offset="0.682292" stop-color="#9E84BE"/>
<stop offset="1" stop-color="#292C2D" stop-opacity="0.96"/>
</linearGradient>
<linearGradient id="paint16_linear_449_2" x1="918.655" y1="185.961" x2="899.702" y2="328.28" gradientUnits="userSpaceOnUse">
<stop offset="0.0416667" stop-color="#3CF3FF"/>
<stop offset="0.682292" stop-color="#9E84BE"/>
<stop offset="1" stop-color="#292C2D" stop-opacity="0.96"/>
</linearGradient>
<linearGradient id="paint17_linear_449_2" x1="918.144" y1="189.277" x2="899.064" y2="332.552" gradientUnits="userSpaceOnUse">
<stop offset="0.0416667" stop-color="#3CF3FF"/>
<stop offset="0.682292" stop-color="#9E84BE"/>
<stop offset="1" stop-color="#292C2D" stop-opacity="0.96"/>
</linearGradient>
<linearGradient id="paint18_linear_449_2" x1="917.634" y1="192.593" x2="898.349" y2="337.409" gradientUnits="userSpaceOnUse">
<stop offset="0.0416667" stop-color="#3CF3FF"/>
<stop offset="0.682292" stop-color="#9E84BE"/>
<stop offset="1" stop-color="#292C2D" stop-opacity="0.96"/>
</linearGradient>
<linearGradient id="paint19_linear_449_2" x1="917.124" y1="195.909" x2="897.459" y2="343.573" gradientUnits="userSpaceOnUse">
<stop offset="0.0416667" stop-color="#3CF3FF"/>
<stop offset="0.682292" stop-color="#9E84BE"/>
<stop offset="1" stop-color="#292C2D" stop-opacity="0.96"/>
</linearGradient>
<linearGradient id="paint20_linear_449_2" x1="916.613" y1="199.225" x2="896.567" y2="349.748" gradientUnits="userSpaceOnUse">
<stop offset="0.0416667" stop-color="#3CF3FF"/>
<stop offset="0.682292" stop-color="#9E84BE"/>
<stop offset="1" stop-color="#292C2D" stop-opacity="0.96"/>
</linearGradient>
<linearGradient id="paint21_linear_449_2" x1="916.103" y1="202.541" x2="895.675" y2="355.934" gradientUnits="userSpaceOnUse">
<stop offset="0.0416667" stop-color="#3CF3FF"/>
<stop offset="0.682292" stop-color="#9E84BE"/>
<stop offset="1" stop-color="#292C2D" stop-opacity="0.96"/>
</linearGradient>
<linearGradient id="paint22_linear_449_2" x1="960.531" y1="931.138" x2="959.759" y2="767.588" gradientUnits="userSpaceOnUse">
<stop offset="0.0572917" stop-color="#D6BDF7"/>
<stop offset="0.671875" stop-color="#3CF0FC"/>
<stop offset="1" stop-color="#292C2D" stop-opacity="0.96"/>
</linearGradient>
<linearGradient id="paint23_linear_449_2" x1="961.463" y1="842.369" x2="960.512" y2="640.582" gradientUnits="userSpaceOnUse">
<stop offset="0.0572917" stop-color="#D6BDF7"/>
<stop offset="0.671875" stop-color="#3CF0FC"/>
<stop offset="1" stop-color="#292C2D" stop-opacity="0.96"/>
</linearGradient>
<linearGradient id="paint24_linear_449_2" x1="960.575" y1="926.911" x2="959.799" y2="762.264" gradientUnits="userSpaceOnUse">
<stop offset="0.0572917" stop-color="#D6BDF7"/>
<stop offset="0.671875" stop-color="#3CF0FC"/>
<stop offset="1" stop-color="#292C2D" stop-opacity="0.96"/>
</linearGradient>
<linearGradient id="paint25_linear_449_2" x1="960.62" y1="922.684" x2="959.838" y2="756.93" gradientUnits="userSpaceOnUse">
<stop offset="0.0572917" stop-color="#D6BDF7"/>
<stop offset="0.671875" stop-color="#3CF0FC"/>
<stop offset="1" stop-color="#292C2D" stop-opacity="0.96"/>
</linearGradient>
<linearGradient id="paint26_linear_449_2" x1="960.664" y1="918.457" x2="959.877" y2="751.587" gradientUnits="userSpaceOnUse">
<stop offset="0.0572917" stop-color="#D6BDF7"/>
<stop offset="0.671875" stop-color="#3CF0FC"/>
<stop offset="1" stop-color="#292C2D" stop-opacity="0.96"/>
</linearGradient>
<linearGradient id="paint27_linear_449_2" x1="960.708" y1="914.23" x2="959.916" y2="746.234" gradientUnits="userSpaceOnUse">
<stop offset="0.0572917" stop-color="#D6BDF7"/>
<stop offset="0.671875" stop-color="#3CF0FC"/>
<stop offset="1" stop-color="#292C2D" stop-opacity="0.96"/>
</linearGradient>
<linearGradient id="paint28_linear_449_2" x1="960.753" y1="910.003" x2="959.955" y2="740.872" gradientUnits="userSpaceOnUse">
<stop offset="0.0572917" stop-color="#D6BDF7"/>
<stop offset="0.671875" stop-color="#3CF0FC"/>
<stop offset="1" stop-color="#292C2D" stop-opacity="0.96"/>
</linearGradient>
<linearGradient id="paint29_linear_449_2" x1="960.797" y1="905.776" x2="959.994" y2="735.501" gradientUnits="userSpaceOnUse">
<stop offset="0.0572917" stop-color="#D6BDF7"/>
<stop offset="0.671875" stop-color="#3CF0FC"/>
<stop offset="1" stop-color="#292C2D" stop-opacity="0.96"/>
</linearGradient>
<linearGradient id="paint30_linear_449_2" x1="960.842" y1="901.548" x2="960.033" y2="730.122" gradientUnits="userSpaceOnUse">
<stop offset="0.0572917" stop-color="#D6BDF7"/>
<stop offset="0.671875" stop-color="#3CF0FC"/>
<stop offset="1" stop-color="#292C2D" stop-opacity="0.96"/>
</linearGradient>
<linearGradient id="paint31_linear_449_2" x1="960.886" y1="897.321" x2="960.072" y2="724.735" gradientUnits="userSpaceOnUse">
<stop offset="0.0572917" stop-color="#D6BDF7"/>
<stop offset="0.671875" stop-color="#3CF0FC"/>
<stop offset="1" stop-color="#292C2D" stop-opacity="0.96"/>
</linearGradient>
<linearGradient id="paint32_linear_449_2" x1="960.93" y1="893.094" x2="960.111" y2="719.34" gradientUnits="userSpaceOnUse">
<stop offset="0.0572917" stop-color="#D6BDF7"/>
<stop offset="0.671875" stop-color="#3CF0FC"/>
<stop offset="1" stop-color="#292C2D" stop-opacity="0.96"/>
</linearGradient>
<linearGradient id="paint33_linear_449_2" x1="960.975" y1="888.867" x2="960.15" y2="713.937" gradientUnits="userSpaceOnUse">
<stop offset="0.0572917" stop-color="#D6BDF7"/>
<stop offset="0.671875" stop-color="#3CF0FC"/>
<stop offset="1" stop-color="#292C2D" stop-opacity="0.96"/>
</linearGradient>
<linearGradient id="paint34_linear_449_2" x1="961.019" y1="884.64" x2="960.189" y2="708.527" gradientUnits="userSpaceOnUse">
<stop offset="0.0572917" stop-color="#D6BDF7"/>
<stop offset="0.671875" stop-color="#3CF0FC"/>
<stop offset="1" stop-color="#292C2D" stop-opacity="0.96"/>
</linearGradient>
<linearGradient id="paint35_linear_449_2" x1="961.064" y1="880.413" x2="960.228" y2="703.111" gradientUnits="userSpaceOnUse">
<stop offset="0.0572917" stop-color="#D6BDF7"/>
<stop offset="0.671875" stop-color="#3CF0FC"/>
<stop offset="1" stop-color="#292C2D" stop-opacity="0.96"/>
</linearGradient>
<linearGradient id="paint36_linear_449_2" x1="961.108" y1="876.186" x2="960.266" y2="697.687" gradientUnits="userSpaceOnUse">
<stop offset="0.0572917" stop-color="#D6BDF7"/>
<stop offset="0.671875" stop-color="#3CF0FC"/>
<stop offset="1" stop-color="#292C2D" stop-opacity="0.96"/>
</linearGradient>
<linearGradient id="paint37_linear_449_2" x1="961.152" y1="871.958" x2="960.305" y2="692.256" gradientUnits="userSpaceOnUse">
<stop offset="0.0572917" stop-color="#D6BDF7"/>
<stop offset="0.671875" stop-color="#3CF0FC"/>
<stop offset="1" stop-color="#292C2D" stop-opacity="0.96"/>
</linearGradient>
<linearGradient id="paint38_linear_449_2" x1="961.197" y1="867.731" x2="960.344" y2="686.82" gradientUnits="userSpaceOnUse">
<stop offset="0.0572917" stop-color="#D6BDF7"/>
<stop offset="0.671875" stop-color="#3CF0FC"/>
<stop offset="1" stop-color="#292C2D" stop-opacity="0.96"/>
</linearGradient>
<linearGradient id="paint39_linear_449_2" x1="961.241" y1="863.504" x2="960.382" y2="681.377" gradientUnits="userSpaceOnUse">
<stop offset="0.0572917" stop-color="#D6BDF7"/>
<stop offset="0.671875" stop-color="#3CF0FC"/>
<stop offset="1" stop-color="#292C2D" stop-opacity="0.96"/>
</linearGradient>
<linearGradient id="paint40_linear_449_2" x1="961.286" y1="859.277" x2="960.418" y2="675.191" gradientUnits="userSpaceOnUse">
<stop offset="0.0572917" stop-color="#D6BDF7"/>
<stop offset="0.671875" stop-color="#3CF0FC"/>
<stop offset="1" stop-color="#292C2D" stop-opacity="0.96"/>
</linearGradient>
<linearGradient id="paint41_linear_449_2" x1="961.33" y1="855.05" x2="960.445" y2="667.344" gradientUnits="userSpaceOnUse">
<stop offset="0.0572917" stop-color="#D6BDF7"/>
<stop offset="0.671875" stop-color="#3CF0FC"/>
<stop offset="1" stop-color="#292C2D" stop-opacity="0.96"/>
</linearGradient>
<linearGradient id="paint42_linear_449_2" x1="961.375" y1="850.823" x2="960.472" y2="659.483" gradientUnits="userSpaceOnUse">
<stop offset="0.0572917" stop-color="#D6BDF7"/>
<stop offset="0.671875" stop-color="#3CF0FC"/>
<stop offset="1" stop-color="#292C2D" stop-opacity="0.96"/>
</linearGradient>
<linearGradient id="paint43_linear_449_2" x1="961.419" y1="846.596" x2="960.499" y2="651.607" gradientUnits="userSpaceOnUse">
<stop offset="0.0572917" stop-color="#D6BDF7"/>
<stop offset="0.671875" stop-color="#3CF0FC"/>
<stop offset="1" stop-color="#292C2D" stop-opacity="0.96"/>
</linearGradient>
</defs>
</svg>
